<svg height="511pt" viewBox="-26 1 511 511.99895" width="511pt" xmlns="http://www.w3.org/2000/svg"><path d="m161.109375 166.441406c1.53125 1.53125 3.539063 2.300782 5.546875 2.300782s4.015625-.765626 5.546875-2.300782l126.792969-126.792968c3.0625-3.0625 3.0625-8.027344 0-11.089844s-8.03125-3.0625-11.089844 0l-126.796875 126.792968c-3.0625 3.0625-3.0625 8.027344 0 11.089844zm0 0"/><path d="m91.355469 140.46875c2.003906 0 4.011719-.765625 5.542969-2.296875l98.523437-98.523437c3.066406-3.0625 3.066406-8.027344 0-11.089844-3.0625-3.0625-8.027344-3.0625-11.089844 0l-98.523437 98.523437c-3.0625 3.0625-3.0625 8.027344 0 11.089844 1.53125 1.53125 3.539062 2.296875 5.546875 2.296875zm0 0"/><path d="m264.679688 166.441406c1.53125 1.53125 3.539062 2.296875 5.542968 2.296875 2.007813 0 4.015625-.765625 5.546875-2.296875l98.523438-98.523437c3.0625-3.0625 3.0625-8.03125 0-11.09375s-8.027344-3.0625-11.089844 0l-98.523437 98.523437c-3.0625 3.0625-3.0625 8.03125 0 11.09375zm0 0"/><path d="m428.875 237.5c1.050781.476562 2.148438.699219 3.234375.699219 2.984375 0 5.835937-1.710938 7.148437-4.609375 13.503907-29.808594 20.347657-61.644532 20.347657-94.625v-41.464844c0-27.359375-24.800781-52.457031-69.839844-70.667969-42.785156-17.304687-99.507813-26.832031-159.710937-26.832031-60.207032 0-116.929688 9.527344-159.714844 26.832031-45.039063 18.210938-69.839844 43.308594-69.839844 70.667969v41.464844c0 61.316406 23.878906 118.964844 67.234375 162.320312 7.023437 7.023438 14.425781 13.523438 22.152344 19.507813l-66.355469 139.613281c-4.140625 8.707031-4.644531 18.5-1.414062 27.585938 3.226562 9.082031 9.800781 16.359374 18.507812 20.496093 4.984375 2.371094 10.246094 3.492188 15.429688 3.492188 13.503906 0 26.476562-7.609375 32.648437-20.59375l64.609375-135.953125c13.511719 4.78125 27.503906 8.285156 41.828125 10.457031v50.941406c0 19.253907 15.664063 34.917969 34.917969 34.917969 9.324218 0 18.089844-3.632812 24.6875-10.230469 6.589844-6.601562 10.21875-15.371093 10.21875-24.6875v-50.960937c14.34375-2.183594 28.332031-5.695313 41.820312-10.457032l64.625 135.96875c4.136719 8.707032 11.414063 15.277344 20.492188 18.511719 3.953125 1.40625 8.039062 2.105469 12.117187 2.105469 5.285157 0 10.542969-1.175781 15.460938-3.511719 17.96875-8.539062 25.640625-30.105469 17.101562-48.078125l-66.328125-139.542968c20.679688-15.980469 38.785156-35.636719 53.363282-58.449219 2.332031-3.652344 1.265624-8.5-2.382813-10.832031-3.652344-2.332032-8.5-1.265626-10.832031 2.382812-39.5625 61.90625-106.980469 98.867188-180.347656 98.867188-104.191407 0-191.203126-74.898438-210.066407-173.679688 11.789063 11.40625 28.734375 21.738281 50.351563 30.480469 42.789062 17.300781 99.507812 26.832031 159.714844 26.832031 60.203124 0 116.925781-9.53125 159.714843-26.832031 21.65625-8.757813 38.617188-19.113281 50.410157-30.539063-3.128907 16.5-8.203126 32.554688-15.210938 48.019532-1.789062 3.945312-.039062 8.59375 3.90625 10.382812zm-354.34375 247.152344c-4.824219 10.15625-17.015625 14.492187-27.175781 9.667968-4.917969-2.335937-8.632813-6.453124-10.460938-11.585937-1.824219-5.132813-1.539062-10.667969.804688-15.589844l65.121093-137.023437c11.386719 7.613281 23.386719 14.136718 35.859376 19.550781zm347.882812-17.507813c4.828126 10.15625.488282 22.347657-9.667968 27.175781-4.921875 2.335938-10.457032 2.617188-15.585938.792969s-9.242187-5.539062-11.582031-10.460937l-64.148437-134.96875c12.519531-5.417969 24.515624-11.964844 35.867187-19.53125zm-173.136718-99.441406v49.128906c0 5.132813-2 9.964844-5.628906 13.601563-3.628907 3.632812-8.457032 5.628906-13.589844 5.628906-10.605469 0-19.234375-8.628906-19.234375-19.230469v-49.117187c6.363281.527344 12.773437.808594 19.230469.808594 6.457031 0 12.863281-.296876 19.222656-.820313zm134.609375-172.609375c-40.964844 16.5625-95.597657 25.6875-153.835938 25.6875-58.234375 0-112.867187-9.125-153.832031-25.6875-38.152344-15.429688-60.035156-35.886719-60.035156-56.128906v-5.179688c5.308594 5.824219 11.917968 11.40625 19.796875 16.660156 3.601562 2.402344 8.472656 1.429688 10.875-2.175781 2.40625-3.601562 1.433593-8.472656-2.171875-10.875-13-8.671875-28.5-22.628906-28.5-39.894531 0-20.238281 21.882812-40.695312 60.035156-56.125 40.964844-16.566406 95.597656-25.6875 153.835938-25.6875 58.238281 0 112.867187 9.121094 153.832031 25.6875 38.152343 15.429688 60.035156 35.886719 60.035156 56.125 0 20.242188-21.882813 40.695312-60.035156 56.125-40.964844 16.566406-95.59375 25.6875-153.832031 25.6875-58.238282 0-112.871094-9.121094-153.832032-25.6875-4.011718-1.625-8.589844.316406-10.214844 4.332031s.316407 8.585938 4.332032 10.210938c42.789062 17.304687 99.507812 26.832031 159.714844 26.832031 60.203124 0 116.925781-9.527344 159.714843-26.832031 24.058594-9.730469 42.339844-21.421875 54.152344-34.378907v5.179688c0 20.238281-21.882813 40.695312-60.035156 56.125zm0 0"/></svg>