<?xml version="1.0" encoding="windows-1252"?>
<!-- Generator: Adobe Illustrator 17.1.0, SVG Export Plug-In . SVG Version: 6.00 Build 0)  -->
<!DOCTYPE svg PUBLIC "-//W3C//DTD SVG 1.1//EN" "http://www.w3.org/Graphics/SVG/1.1/DTD/svg11.dtd">
<svg version="1.1" id="Capa_1" xmlns="http://www.w3.org/2000/svg" xmlns:xlink="http://www.w3.org/1999/xlink" x="0px" y="0px" viewBox="0 0 294.881 294.881" style="enable-background:new 0 0 294.881 294.881;" xml:space="preserve">
<path d="M0,127.145C0,91.84,50.49,63.076,121.294,57.217c-0.081-0.125-0.161-0.247-0.243-0.37  c-7.372-10.99-10.467-26.751-7.883-40.152c0.837-4.338,5.033-7.176,9.37-6.341c4.338,0.837,7.177,5.032,6.341,9.37  c-1.798,9.324,0.396,20.662,5.461,28.211c10.29,15.349,12.479,42.791-0.828,57.628c-2.949,3.29-8.008,3.564-11.297,0.614  c-3.289-2.95-3.564-8.008-0.614-11.297c4.303-4.798,5.939-13.45,4.965-22.019c-30.778,2.146-58.897,9.016-79.577,19.484  C27.005,102.463,16,114.821,16,127.145c0,13.302,13.17,26.882,36.135,37.258c25.324,11.442,59.171,17.744,95.305,17.744  s69.981-6.301,95.306-17.744c22.965-10.376,36.136-23.956,36.136-37.258c0-19.365-28.278-38.838-70.368-48.456  c-4.308-0.984-7.001-5.274-6.017-9.581c0.983-4.306,5.274-7.002,9.581-6.017c23.7,5.416,43.833,13.752,58.222,24.109  c16.082,11.575,24.582,25.388,24.582,39.944c0,20.158-16.176,38.568-45.548,51.838c-27.351,12.357-63.537,19.163-101.894,19.163  c-38.357,0-74.543-6.806-101.893-19.163C16.175,165.713,0,147.303,0,127.145z M161.383,94.884c-2.95,3.29-2.674,8.348,0.615,11.297  c1.528,1.37,3.437,2.043,5.338,2.043c2.194,0,4.38-0.897,5.96-2.66c13.306-14.841,11.114-42.282,0.826-57.628  c-5.066-7.553-7.26-18.889-5.46-28.209c0.838-4.338-1.999-8.534-6.337-9.373c-4.344-0.836-8.535,2-9.372,6.338  c-2.588,13.397,0.505,29.159,7.88,40.155C168.315,68.007,168.587,86.847,161.383,94.884z M179.503,123.572c-4.418,0-8,3.582-8,8  s3.582,8,8,8h1.329c4.418,0,8-3.582,8-8s-3.582-8-8-8H179.503z M120.26,139.449c-4.418,0-8,3.582-8,8s3.582,8,8,8h1.33  c4.418,0,8-3.582,8-8s-3.582-8-8-8H120.26z M281.229,232.274c-21.805,21.771-75.57,36.399-133.789,36.399  c-58.218,0-111.983-14.627-133.787-36.399c-3.127-3.122-8.192-3.118-11.314,0.009c-3.122,3.126-3.118,8.191,0.009,11.313  c24.99,24.953,81.942,41.077,145.092,41.077c63.15,0,120.103-16.124,145.094-41.077c3.127-3.122,3.131-8.187,0.009-11.313  C289.421,229.156,284.356,229.152,281.229,232.274z M147.44,241.409c63.15,0,120.103-16.124,145.094-41.077  c3.127-3.122,3.131-8.187,0.009-11.313c-3.121-3.127-8.187-3.13-11.313-0.009c-21.805,21.771-75.57,36.399-133.789,36.399  c-58.218,0-111.983-14.627-133.787-36.399c-3.127-3.123-8.192-3.118-11.314,0.008c-3.122,3.127-3.118,8.192,0.009,11.314  C27.338,225.286,84.29,241.409,147.44,241.409z M242.209,134.259c4.418,0,8-3.582,8-8s-3.582-8-8-8h-1.328c-4.418,0-8,3.582-8,8  s3.582,8,8,8H242.209z M68.516,109.09c-4.418,0-8,3.582-8,8s3.582,8,8,8h1.33c4.418,0,8-3.582,8-8s-3.582-8-8-8H68.516z"/>
<g>
</g>
<g>
</g>
<g>
</g>
<g>
</g>
<g>
</g>
<g>
</g>
<g>
</g>
<g>
</g>
<g>
</g>
<g>
</g>
<g>
</g>
<g>
</g>
<g>
</g>
<g>
</g>
<g>
</g>
</svg>