<svg xmlns="http://www.w3.org/2000/svg" xmlns:xlink="http://www.w3.org/1999/xlink" width="20" height="19" viewBox="0 0 20 19"><defs><path id="c993a" d="M1479.658 6004.588l.88 5.136-4.612-2.423-4.613 2.423.88-5.136-3.733-3.636 5.158-.75 2.308-4.675 2.307 4.676 5.158.749-3.733 3.636zm5.176-5.224l-5.42-.79-2.424-4.913c-.434-.876-1.692-.887-2.13 0l-2.422 4.913-5.421.79c-.972.141-1.362 1.34-.657 2.026l3.922 3.822-.928 5.398c-.167.976.861 1.707 1.722 1.25l4.85-2.548 4.85 2.549c.86.452 1.888-.275 1.72-1.25l-.927-5.4 3.922-3.821c.705-.687.316-1.885-.657-2.026z"/></defs><g><g transform="translate(-1466 -5993)"><use fill="#f2c736" xlink:href="#c993a"/></g></g></svg>