<?xml version="1.0" encoding="UTF-8" standalone="no"?>
<!-- Generator: Adobe Illustrator 22.1.0, SVG Export Plug-In . SVG Version: 6.00 Build 0)  -->

<svg
   xmlns:dc="http://purl.org/dc/elements/1.1/"
   xmlns:cc="http://creativecommons.org/ns#"
   xmlns:rdf="http://www.w3.org/1999/02/22-rdf-syntax-ns#"
   xmlns:svg="http://www.w3.org/2000/svg"
   xmlns="http://www.w3.org/2000/svg"
   xmlns:sodipodi="http://sodipodi.sourceforge.net/DTD/sodipodi-0.dtd"
   xmlns:inkscape="http://www.inkscape.org/namespaces/inkscape"
   version="1.1"
   id="_x31_"
   x="0px"
   y="0px"
   viewBox="0 0 134.4 92.4"
   style="enable-background:new 0 0 134.4 92.4;"
   xml:space="preserve"
   sodipodi:docname="kprod.svg"
   inkscape:version="0.92.1 r15371"><metadata
     id="metadata9"><rdf:RDF><cc:Work
         rdf:about=""><dc:format>image/svg+xml</dc:format><dc:type
           rdf:resource="http://purl.org/dc/dcmitype/StillImage" /><dc:title></dc:title></cc:Work></rdf:RDF></metadata><defs
     id="defs7" /><sodipodi:namedview
     pagecolor="#ffffff"
     bordercolor="#666666"
     borderopacity="1"
     objecttolerance="10"
     gridtolerance="10"
     guidetolerance="10"
     inkscape:pageopacity="0"
     inkscape:pageshadow="2"
     inkscape:window-width="640"
     inkscape:window-height="480"
     id="namedview5"
     showgrid="false"
     inkscape:zoom="2.5541125"
     inkscape:cx="67.199997"
     inkscape:cy="46.200001"
     inkscape:window-x="0"
     inkscape:window-y="0"
     inkscape:window-maximized="0"
     inkscape:current-layer="_x31_" /><path
     d="M133.4,0.1H98.5c-0.2,0-0.5,0.1-0.6,0.3L52.3,47.7c-0.3,0.3-0.8,0.4-1.2,0.1c-0.4-0.3-0.4-0.8-0.1-1.2l16.4-22.5  c0.3-0.3,0.2-0.8-0.1-1.1L44.4,0.3C44.2,0.1,44,0,43.8,0s-0.4,0.1-0.6,0.3l-43,45.3c-0.3,0.3-0.3,0.9,0,1.2l43,45.1  c0.3,0.3,0.9,0.4,1.2,0c2.6-2.3,11.4-11.4,11.8-11.8L134,1.6c0.3-0.3,0.3-0.6,0.2-0.9C134.1,0.3,133.8,0.1,133.4,0.1L133.4,0.1z   M75.7,68.7c-0.3-0.3-0.3-0.9,0-1.2L93,50c0.2-0.2,0.4-0.3,0.6-0.3s0.4,0.1,0.6,0.3l39.9,41c0.2,0.3,0.3,0.6,0.2,0.9  s-0.4,0.5-0.8,0.5h-33c-2.7,0-2,0.2-3.6-1.4l0,0L75.7,68.7z"
     id="path2" /></svg>