<?xml version="1.0" encoding="UTF-8" standalone="no"?>
<!-- Generator: Adobe Illustrator 22.1.0, SVG Export Plug-In . SVG Version: 6.00 Build 0)  -->

<svg
   xmlns:dc="http://purl.org/dc/elements/1.1/"
   xmlns:cc="http://creativecommons.org/ns#"
   xmlns:rdf="http://www.w3.org/1999/02/22-rdf-syntax-ns#"
   xmlns:svg="http://www.w3.org/2000/svg"
   xmlns="http://www.w3.org/2000/svg"
   xmlns:sodipodi="http://sodipodi.sourceforge.net/DTD/sodipodi-0.dtd"
   xmlns:inkscape="http://www.inkscape.org/namespaces/inkscape"
   version="1.1"
   id="Layer_1"
   x="0px"
   y="0px"
   viewBox="0 0 512 512"
   style="enable-background:new 0 0 512 512;"
   xml:space="preserve"
   sodipodi:docname="dislike.svg"
   inkscape:version="0.92.1 r15371"><metadata
     id="metadata19"><rdf:RDF><cc:Work
         rdf:about=""><dc:format>image/svg+xml</dc:format><dc:type
           rdf:resource="http://purl.org/dc/dcmitype/StillImage" /><dc:title></dc:title></cc:Work></rdf:RDF></metadata><defs
     id="defs17" /><sodipodi:namedview
     pagecolor="#ffffff"
     bordercolor="#666666"
     borderopacity="1"
     objecttolerance="10"
     gridtolerance="10"
     guidetolerance="10"
     inkscape:pageopacity="0"
     inkscape:pageshadow="2"
     inkscape:window-width="640"
     inkscape:window-height="480"
     id="namedview15"
     showgrid="false"
     inkscape:zoom="0.4609375"
     inkscape:cx="256"
     inkscape:cy="256"
     inkscape:window-x="0"
     inkscape:window-y="0"
     inkscape:window-maximized="0"
     inkscape:current-layer="Layer_1" /><g
     id="g6"><g
       id="g4"><path
         d="M428.4,344.7h66.9c9.2,0,16.7-7.5,16.7-16.7V27.1c0-9.2-7.5-16.7-16.7-16.7h-66.9c-9.2,0-16.7,7.5-16.7,16.7V328    C411.7,337.3,419.2,344.7,428.4,344.7z"
         id="path2" /></g></g><g
     id="g12"><g
       id="g10"><path
         d="M41.7,344.7c2.7,0.5,128.7,0,128.7,0l-17.6,48c-12.1,33.2-4.3,83.8,29.4,101.8c11,5.9,26.3,8.8,38.7,5.7    c7.1-1.8,13.3-6.5,17-12.8c4.3-7.2,3.8-15.7,5.4-23.7c3.9-20.3,13.5-39.7,28.4-54.2c26-25.3,106.6-98.3,106.6-98.3V43.9H99.7    c-37.6,0-62.2,42-43.7,74.7c-22.1,14.2-29.7,44-16.7,66.9c-22.1,14.2-29.7,44-16.7,66.9C-15.6,276.8-2.8,337.2,41.7,344.7z"
         id="path8" /></g></g></svg>