<svg xmlns="http://www.w3.org/2000/svg" xmlns:xlink="http://www.w3.org/1999/xlink" xmlns:dc="http://purl.org/dc/elements/1.1/" xmlns:cc="http://creativecommons.org/ns#" xmlns:rdf="http://www.w3.org/1999/02/22-rdf-syntax-ns#" xmlns:svg="http://www.w3.org/2000/svg" xmlns:sodipodi="http://sodipodi.sourceforge.net/DTD/sodipodi-0.dtd" xmlns:inkscape="http://www.inkscape.org/namespaces/inkscape"><defs><path id="ipr1a" d="M454 7085.143v15.714c0 1.183-.96 2.143-2.143 2.143h-3.808v-7.91h2.705l.389-3.019h-3.094v-1.928c0-.875.241-1.469 1.496-1.469h1.598v-2.696a21.489 21.489 0 0 0-2.33-.12c-2.304 0-3.884 1.405-3.884 3.99v2.228h-2.715v3.018h2.719V7103h-8.79a2.143 2.143 0 0 1-2.143-2.143v-15.714c0-1.183.96-2.143 2.143-2.143h15.714c1.183 0 2.143.96 2.143 2.143z"/><path id="ebtha" d="M416.199 7092.998c0-1.455.12-4.578-.402-5.894a3.374 3.374 0 0 0-1.9-1.901c-1.313-.518-4.44-.402-5.895-.402-1.454 0-4.578-.12-5.894.402a3.374 3.374 0 0 0-1.9 1.9c-.518 1.312-.402 4.44-.402 5.895 0 1.454-.12 4.577.401 5.894a3.374 3.374 0 0 0 1.901 1.9c1.312.518 4.44.402 5.894.402 1.455 0 4.578.12 5.894-.402a3.374 3.374 0 0 0 1.9-1.9c.523-1.312.403-4.44.403-5.894zm1.73-4.123c.094 1.65.094 6.594 0 8.245-.08 1.602-.445 3.02-1.614 4.19-1.17 1.173-2.588 1.54-4.19 1.615-1.651.094-6.6.094-8.25 0-1.602-.08-3.016-.446-4.19-1.615-1.173-1.17-1.539-2.588-1.615-4.19-.093-1.65-.093-6.599 0-8.25.08-1.601.442-3.02 1.615-4.19 1.174-1.168 2.593-1.534 4.19-1.61 1.65-.094 6.599-.094 8.25 0 1.602.08 3.02.446 4.19 1.615 1.173 1.17 1.539 2.588 1.615 4.19zm-3.395-1.214c0 .665-.535 1.196-1.196 1.196a1.196 1.196 0 1 1 1.196-1.196zm-3.199 5.337a3.336 3.336 0 0 0-3.333-3.333 3.336 3.336 0 0 0-3.333 3.333c0 1.838 1.5 3.333 3.333 3.333a3.339 3.339 0 0 0 3.333-3.333zm1.794 0a5.118 5.118 0 0 1-5.127 5.126 5.118 5.118 0 0 1-5.126-5.126 5.118 5.118 0 0 1 5.126-5.127 5.118 5.118 0 0 1 5.127 5.127z"/><path id="laqha" d="M493.03 7086.95c.162-.547 0-.95-.779-.95h-2.577c-.656 0-.958.346-1.12.73 0 0-1.312 3.199-3.167 5.272-.6.6-.875.792-1.203.792-.162 0-.411-.192-.411-.739v-5.106c0-.656-.184-.949-.727-.949h-4.051c-.411 0-.656.306-.656.59 0 .622.927.766 1.024 2.516v3.798c0 .831-.15.984-.477.984-.875 0-3.002-3.211-4.262-6.886-.253-.713-.503-1.002-1.163-1.002h-2.577c-.735 0-.884.346-.884.73 0 .683.875 4.074 4.073 8.554 2.13 3.058 5.132 4.716 7.862 4.716 1.64 0 1.842-.368 1.842-1.002 0-2.922-.149-3.198.674-3.198.38 0 1.037.192 2.568 1.667 1.75 1.75 2.039 2.533 3.019 2.533h2.576c.735 0 1.107-.368.893-1.094-.49-1.527-3.802-4.668-3.95-4.878-.381-.49-.272-.709 0-1.146.004-.005 3.15-4.432 3.473-5.933z"/><path id="c993a" d="M1479.658 6004.588l.88 5.136-4.612-2.423-4.613 2.423.88-5.136-3.733-3.636 5.158-.75 2.308-4.675 2.307 4.676 5.158.749-3.733 3.636zm5.176-5.224l-5.42-.79-2.424-4.913c-.434-.876-1.692-.887-2.13 0l-2.422 4.913-5.421.79c-.972.141-1.362 1.34-.657 2.026l3.922 3.822-.928 5.398c-.167.976.861 1.707 1.722 1.25l4.85-2.548 4.85 2.549c.86.452 1.888-.275 1.72-1.25l-.927-5.4 3.922-3.821c.705-.687.316-1.885-.657-2.026z"/><path id="wqjsa" d="M1400.834 5999.364l-5.42-.79-2.424-4.913c-.434-.876-1.692-.887-2.13 0l-2.422 4.913-5.421.79c-.972.141-1.362 1.34-.657 2.026l3.922 3.822-.928 5.398c-.167.976.861 1.707 1.722 1.25l4.85-2.548 4.85 2.549c.86.452 1.888-.275 1.72-1.25l-.927-5.4 3.922-3.821c.705-.687.316-1.885-.657-2.026z"/></defs><symbol id="fb" viewBox="0 0 20 20"><g><g transform="translate(-434 -7083)"><use xlink:href="#ipr1a"/></g></g></symbol><symbol id="ig" viewBox="0 0 20 20"><g><g transform="translate(-398 -7083)"><use xlink:href="#ebtha"/></g></g></symbol><symbol id="tg" viewBox="0 0 512.004 512.004"><g><path d="M508.194,20.517c-4.43-4.96-11.42-6.29-17.21-3.76l-482,211c-5.34,2.34-8.85,7.57-8.98,13.41  c-0.13,5.83,3.14,11.21,8.38,13.79l115.09,56.6l28.68,172.06c0.93,6.53,6.06,11.78,12.74,12.73c4.8,0.69,9.57-1,12.87-4.4  l90.86-90.86l129.66,92.62c4.16,2.96,9.52,3.61,14.24,1.74c4.73-1.87,8.19-6.02,9.19-11.01l90-451  C512.604,28.967,511.454,24.177,508.194,20.517z M135.354,283.967l-84.75-41.68l334.82-146.57L135.354,283.967z M182.294,328.557  l-13.95,69.75l-15.05-90.3l183.97-138.49l-150.88,151.39C184.264,323.027,182.854,325.787,182.294,328.557z M191.424,435.857  l15.74-78.67l36.71,26.22L191.424,435.857z M396.834,455.797l-176.73-126.23l252.47-253.31L396.834,455.797z" data-original="#000000" class="active-path" data-old_color="#ffffff"/></g> </symbol><symbol id="vk" viewBox="0 0 24 14"><g><g transform="translate(-470 -7086)"><use xlink:href="#laqha"/></g></g></symbol><symbol id="youtube" viewBox="0 0 512 512"><g><g>
	<g>
		<path d="M490.24,113.92c-13.888-24.704-28.96-29.248-59.648-30.976C399.936,80.864,322.848,80,256.064,80    c-66.912,0-144.032,0.864-174.656,2.912c-30.624,1.76-45.728,6.272-59.744,31.008C7.36,138.592,0,181.088,0,255.904    C0,255.968,0,256,0,256c0,0.064,0,0.096,0,0.096v0.064c0,74.496,7.36,117.312,21.664,141.728    c14.016,24.704,29.088,29.184,59.712,31.264C112.032,430.944,189.152,432,256.064,432c66.784,0,143.872-1.056,174.56-2.816    c30.688-2.08,45.76-6.56,59.648-31.264C504.704,373.504,512,330.688,512,256.192c0,0,0-0.096,0-0.16c0,0,0-0.064,0-0.096    C512,181.088,504.704,138.592,490.24,113.92z M192,352V160l160,96L192,352z" data-original="#000000" class="active-path" data-old_color="#ff1800"/>
	</g>
</g></g> </symbol><symbol id="user" viewBox="0 0 350 350">
<g>
	<path d="M175,171.173c38.914,0,70.463-38.318,70.463-85.586C245.463,38.318,235.105,0,175,0s-70.465,38.318-70.465,85.587   C104.535,132.855,136.084,171.173,175,171.173z"/>
	<path d="M41.909,301.853C41.897,298.971,41.885,301.041,41.909,301.853L41.909,301.853z"/>
	<path d="M308.085,304.104C308.123,303.315,308.098,298.63,308.085,304.104L308.085,304.104z"/>
	<path d="M307.935,298.397c-1.305-82.342-12.059-105.805-94.352-120.657c0,0-11.584,14.761-38.584,14.761   s-38.586-14.761-38.586-14.761c-81.395,14.69-92.803,37.805-94.303,117.982c-0.123,6.547-0.18,6.891-0.202,6.131   c0.005,1.424,0.011,4.058,0.011,8.651c0,0,19.592,39.496,133.08,39.496c113.486,0,133.08-39.496,133.08-39.496   c0-2.951,0.002-5.003,0.005-6.399C308.062,304.575,308.018,303.664,307.935,298.397z"/>
</g>
</symbol><symbol id="kprod" viewBox="0 0 134.4 92.4"><metadata id="metadata9"><rdf:RDF><cc:Work rdf:about=""><dc:format>image/svg+xml</dc:format><dc:type rdf:resource="http://purl.org/dc/dcmitype/StillImage"/><dc:title/></cc:Work></rdf:RDF></metadata><sodipodi:namedview pagecolor="#ffffff" bordercolor="#666666" borderopacity="1" objecttolerance="10" gridtolerance="10" guidetolerance="10" inkscape:pageopacity="0" inkscape:pageshadow="2" inkscape:window-width="640" inkscape:window-height="480" id="namedview5" showgrid="false" inkscape:zoom="2.5541125" inkscape:cx="67.199997" inkscape:cy="46.200001" inkscape:window-x="0" inkscape:window-y="0" inkscape:window-maximized="0" inkscape:current-layer="_x31_"/><path d="M133.4,0.1H98.5c-0.2,0-0.5,0.1-0.6,0.3L52.3,47.7c-0.3,0.3-0.8,0.4-1.2,0.1c-0.4-0.3-0.4-0.8-0.1-1.2l16.4-22.5  c0.3-0.3,0.2-0.8-0.1-1.1L44.4,0.3C44.2,0.1,44,0,43.8,0s-0.4,0.1-0.6,0.3l-43,45.3c-0.3,0.3-0.3,0.9,0,1.2l43,45.1  c0.3,0.3,0.9,0.4,1.2,0c2.6-2.3,11.4-11.4,11.8-11.8L134,1.6c0.3-0.3,0.3-0.6,0.2-0.9C134.1,0.3,133.8,0.1,133.4,0.1L133.4,0.1z   M75.7,68.7c-0.3-0.3-0.3-0.9,0-1.2L93,50c0.2-0.2,0.4-0.3,0.6-0.3s0.4,0.1,0.6,0.3l39.9,41c0.2,0.3,0.3,0.6,0.2,0.9  s-0.4,0.5-0.8,0.5h-33c-2.7,0-2,0.2-3.6-1.4l0,0L75.7,68.7z" id="path2"/></symbol><symbol id="arrow-right" viewBox="0 0 129 129">
  <g>
    <path d="m40.4,121.3c-0.8,0.8-1.8,1.2-2.9,1.2s-2.1-0.4-2.9-1.2c-1.6-1.6-1.6-4.2 0-5.8l51-51-51-51c-1.6-1.6-1.6-4.2 0-5.8 1.6-1.6 4.2-1.6 5.8,0l53.9,53.9c1.6,1.6 1.6,4.2 0,5.8l-53.9,53.9z"/>
  </g>
</symbol><symbol id="calendar" viewBox="0 0 58 58">
<g>
	<path d="M42.899,4.5c-0.465-2.279-2.484-4-4.899-4c-0.553,0-1,0.447-1,1s0.447,1,1,1c1.654,0,3,1.346,3,3s-1.346,3-3,3   c-0.553,0-1,0.447-1,1s0.447,1,1,1c2.414,0,4.434-1.721,4.899-4H56v9H2v-9h14h3c0.553,0,1-0.447,1-1s-0.447-1-1-1h-1.816   c0.414-1.162,1.514-2,2.816-2c1.654,0,3,1.346,3,3s-1.346,3-3,3c-0.553,0-1,0.447-1,1s0.447,1,1,1c2.757,0,5-2.243,5-5   s-2.243-5-5-5c-2.414,0-4.434,1.721-4.899,4H0v13v40h58v-40v-13H42.899z M56,55.5H2v-38h54V55.5z"/>
	<path d="M26,2.5c1.654,0,3,1.346,3,3s-1.346,3-3,3c-0.553,0-1,0.447-1,1s0.447,1,1,1c2.757,0,5-2.243,5-5s-2.243-5-5-5   c-0.553,0-1,0.447-1,1S25.447,2.5,26,2.5z"/>
	<path d="M32,2.5c1.654,0,3,1.346,3,3s-1.346,3-3,3c-0.553,0-1,0.447-1,1s0.447,1,1,1c2.757,0,5-2.243,5-5s-2.243-5-5-5   c-0.553,0-1,0.447-1,1S31.447,2.5,32,2.5z"/>
	<circle cx="22" cy="24.5" r="1"/>
	<circle cx="29" cy="24.5" r="1"/>
	<circle cx="36" cy="24.5" r="1"/>
	<circle cx="43" cy="24.5" r="1"/>
	<circle cx="50" cy="24.5" r="1"/>
	<circle cx="8" cy="32.5" r="1"/>
	<circle cx="15" cy="32.5" r="1"/>
	<circle cx="22" cy="32.5" r="1"/>
	<circle cx="29" cy="32.5" r="1"/>
	<circle cx="36" cy="32.5" r="1"/>
	<circle cx="43" cy="32.5" r="1"/>
	<circle cx="50" cy="32.5" r="1"/>
	<circle cx="8" cy="39.5" r="1"/>
	<circle cx="15" cy="39.5" r="1"/>
	<circle cx="22" cy="39.5" r="1"/>
	<circle cx="29" cy="39.5" r="1"/>
	<circle cx="36" cy="39.5" r="1"/>
	<circle cx="43" cy="39.5" r="1"/>
	<circle cx="50" cy="39.5" r="1"/>
	<circle cx="8" cy="47.5" r="1"/>
	<circle cx="15" cy="47.5" r="1"/>
	<circle cx="22" cy="47.5" r="1"/>
	<circle cx="29" cy="47.5" r="1"/>
	<circle cx="36" cy="47.5" r="1"/>
</g>
<g>
</g>
<g>
</g>
<g>
</g>
<g>
</g>
<g>
</g>
<g>
</g>
<g>
</g>
<g>
</g>
<g>
</g>
<g>
</g>
<g>
</g>
<g>
</g>
<g>
</g>
<g>
</g>
<g>
</g>
</symbol><symbol id="dislike" viewBox="0 0 512 512"><metadata id="metadata19"><rdf:RDF><cc:Work rdf:about=""><dc:format>image/svg+xml</dc:format><dc:type rdf:resource="http://purl.org/dc/dcmitype/StillImage"/><dc:title/></cc:Work></rdf:RDF></metadata><sodipodi:namedview pagecolor="#ffffff" bordercolor="#666666" borderopacity="1" objecttolerance="10" gridtolerance="10" guidetolerance="10" inkscape:pageopacity="0" inkscape:pageshadow="2" inkscape:window-width="640" inkscape:window-height="480" id="namedview15" showgrid="false" inkscape:zoom="0.4609375" inkscape:cx="256" inkscape:cy="256" inkscape:window-x="0" inkscape:window-y="0" inkscape:window-maximized="0" inkscape:current-layer="Layer_1"/><g id="g6"><g id="g4"><path d="M428.4,344.7h66.9c9.2,0,16.7-7.5,16.7-16.7V27.1c0-9.2-7.5-16.7-16.7-16.7h-66.9c-9.2,0-16.7,7.5-16.7,16.7V328    C411.7,337.3,419.2,344.7,428.4,344.7z" id="path2"/></g></g><g id="g12"><g id="g10"><path d="M41.7,344.7c2.7,0.5,128.7,0,128.7,0l-17.6,48c-12.1,33.2-4.3,83.8,29.4,101.8c11,5.9,26.3,8.8,38.7,5.7    c7.1-1.8,13.3-6.5,17-12.8c4.3-7.2,3.8-15.7,5.4-23.7c3.9-20.3,13.5-39.7,28.4-54.2c26-25.3,106.6-98.3,106.6-98.3V43.9H99.7    c-37.6,0-62.2,42-43.7,74.7c-22.1,14.2-29.7,44-16.7,66.9c-22.1,14.2-29.7,44-16.7,66.9C-15.6,276.8-2.8,337.2,41.7,344.7z" id="path8"/></g></g></symbol><symbol id="left-arrow" viewBox="0 0 129 129">
<g>
	<path d="M88.5,7.7c0.8-0.8,1.8-1.2,2.9-1.2s2.1,0.4,2.9,1.2c1.6,1.6,1.6,4.2,0,5.8l-51,51l51,51c1.6,1.6,1.6,4.2,0,5.8
		c-1.6,1.6-4.2,1.6-5.8,0L34.6,67.4c-1.6-1.6-1.6-4.2,0-5.8L88.5,7.7z"/>
</g>
</symbol><symbol id="like" viewBox="0 0 511.999 511.999"><metadata id="metadata19"><rdf:RDF><cc:Work rdf:about=""><dc:format>image/svg+xml</dc:format><dc:type rdf:resource="http://purl.org/dc/dcmitype/StillImage"/><dc:title/></cc:Work></rdf:RDF></metadata><sodipodi:namedview pagecolor="#ffffff" bordercolor="#666666" borderopacity="1" objecttolerance="10" gridtolerance="10" guidetolerance="10" inkscape:pageopacity="0" inkscape:pageshadow="2" inkscape:window-width="640" inkscape:window-height="480" id="namedview15" showgrid="false" inkscape:zoom="0.4609375" inkscape:cx="256" inkscape:cy="256" inkscape:window-x="0" inkscape:window-y="0" inkscape:window-maximized="0" inkscape:current-layer="Layer_1"/><g id="g6"><g id="g4"><path d="M83.578,167.256H16.716C7.524,167.256,0,174.742,0,183.971v300.881c0,9.225,7.491,16.713,16.716,16.713h66.862    c9.225,0,16.716-7.489,16.716-16.713V183.971C100.294,174.742,92.769,167.256,83.578,167.256z" id="path2"/></g></g><g id="g12"><g id="g10"><path d="M470.266,167.256c-2.692-0.456-128.739,0-128.739,0l17.606-48.032c12.148-33.174,4.283-83.827-29.424-101.835    c-10.975-5.864-26.309-8.809-38.672-5.697c-7.09,1.784-13.321,6.478-17.035,12.767c-4.271,7.233-3.83,15.676-5.351,23.696    c-3.857,20.342-13.469,39.683-28.354,54.2c-25.952,25.311-106.571,98.331-106.571,98.331v267.45h278.593    c37.592,0.022,62.228-41.958,43.687-74.749c22.101-14.155,29.66-43.97,16.716-66.862c22.102-14.155,29.66-43.97,16.716-66.862    C527.572,235.24,514.823,174.792,470.266,167.256z" id="path8"/></g></g></symbol><symbol id="time" viewBox="0 0 60 60">
<g>
	<path d="M30,0C13.458,0,0,13.458,0,30s13.458,30,30,30s30-13.458,30-30S46.542,0,30,0z M30,58C14.561,58,2,45.439,2,30   S14.561,2,30,2s28,12.561,28,28S45.439,58,30,58z"/>
	<path d="M30,6c-0.552,0-1,0.447-1,1v23H14c-0.552,0-1,0.447-1,1s0.448,1,1,1h16c0.552,0,1-0.447,1-1V7C31,6.447,30.552,6,30,6z"/>
</g>
<g>
</g>
<g>
</g>
<g>
</g>
<g>
</g>
<g>
</g>
<g>
</g>
<g>
</g>
<g>
</g>
<g>
</g>
<g>
</g>
<g>
</g>
<g>
</g>
<g>
</g>
<g>
</g>
<g>
</g>
</symbol><symbol id="view" viewBox="0 0 59.2 59.2">
<g>
	<path d="M51.062,21.561c-11.889-11.889-31.232-11.889-43.121,0L0,29.501l8.138,8.138c5.944,5.944,13.752,8.917,21.561,8.917   s15.616-2.972,21.561-8.917l7.941-7.941L51.062,21.561z M49.845,36.225c-11.109,11.108-29.184,11.108-40.293,0l-6.724-6.724   l6.527-6.527c11.109-11.108,29.184-11.108,40.293,0l6.724,6.724L49.845,36.225z"/>
	<path d="M28.572,21.57c-3.86,0-7,3.14-7,7c0,0.552,0.448,1,1,1s1-0.448,1-1c0-2.757,2.243-5,5-5c0.552,0,1-0.448,1-1   S29.125,21.57,28.572,21.57z"/>
	<path d="M29.572,16.57c-7.168,0-13,5.832-13,13s5.832,13,13,13s13-5.832,13-13S36.741,16.57,29.572,16.57z M29.572,40.57   c-6.065,0-11-4.935-11-11s4.935-11,11-11s11,4.935,11,11S35.638,40.57,29.572,40.57z"/>
</g>
<g>
</g>
<g>
</g>
<g>
</g>
<g>
</g>
<g>
</g>
<g>
</g>
<g>
</g>
<g>
</g>
<g>
</g>
<g>
</g>
<g>
</g>
<g>
</g>
<g>
</g>
<g>
</g>
<g>
</g>
</symbol><symbol id="breakfast" viewBox="0 0 480 480">
<g>
	<g>
		<path d="M240,80c-88.366,0-160,71.634-160,160s71.634,160,160,160s160-71.634,160-160C399.899,151.676,328.324,80.101,240,80z     M240,384c-79.529,0-144-64.471-144-144S160.471,96,240,96s144,64.471,144,144C383.907,319.491,319.491,383.907,240,384z"/>
	</g>
</g>
<g>
	<g>
		<path d="M467.864,49.52c-7.338-3.058-15.797-1.376-21.408,4.256C426.891,73.241,415.925,99.722,416,127.32V232    c0.042,10.134,6.445,19.15,16,22.528V408c0,13.255,10.745,24,24,24s24-10.745,24-24V67.672    C480.016,59.718,475.22,52.545,467.864,49.52z M464,408c0,4.418-3.582,8-8,8s-8-3.582-8-8V256h16V408z M464,240h-24    c-4.418,0-8-3.582-8-8V127.32c-0.06-23.351,9.221-45.756,25.776-62.224c0.645-0.69,1.544-1.086,2.488-1.096    c0.512,0.006,1.017,0.112,1.488,0.312c1.393,0.526,2.296,1.88,2.248,3.368V240z"/>
	</g>
</g>
<g>
	<g>
		<path d="M176,184c-17.673,0-32,14.327-32,32s14.327,32,32,32s32-14.327,32-32S193.673,184,176,184z M176,232    c-8.837,0-16-7.163-16-16s7.163-16,16-16s16,7.163,16,16S184.837,232,176,232z"/>
	</g>
</g>
<g>
	<g>
		<path d="M240.688,189.376l-14.064-14.064c-1.688-1.679-2.633-3.964-2.624-6.344c-0.018-13.782-11.186-24.95-24.968-24.968h-32    c-6.619,0.017-12.963,2.644-17.656,7.312l-30.064,30.064c-4.698,4.672-7.331,11.03-7.312,17.656v33.936    c-0.019,6.626,2.614,12.984,7.312,17.656l14.064,14.064c1.688,1.679,2.633,3.964,2.624,6.344    c0.018,13.782,11.186,24.95,24.968,24.968h16c6.619-0.017,12.963-2.645,17.656-7.312l22.064-22.064    c1.688-1.674,3.967-2.617,6.344-2.624c13.782-0.018,24.95-11.186,24.968-24.968v-32    C248.019,200.406,245.386,194.048,240.688,189.376z M232,239.032c-0.004,4.951-4.017,8.964-8.968,8.968    c-6.619,0.017-12.963,2.644-17.656,7.312l-22.064,22.064c-1.688,1.674-3.967,2.617-6.344,2.624h-16    c-4.951-0.004-8.964-4.017-8.968-8.968c0.019-6.626-2.614-12.984-7.312-17.656l-14.064-14.064    c-1.688-1.679-2.633-3.964-2.624-6.344v-33.936c-0.008-2.38,0.936-4.665,2.624-6.344l30.064-30.064    c1.688-1.674,3.967-2.617,6.344-2.624h32c4.951,0.004,8.964,4.017,8.968,8.968c-0.019,6.626,2.614,12.984,7.312,17.656    l14.064,14.064c1.688,1.679,2.633,3.964,2.624,6.344V239.032z"/>
	</g>
</g>
<g>
	<g>
		<path d="M317.656,258.344l-32-32c-3.125-3.124-8.19-3.123-11.314,0.002c-1.499,1.5-2.342,3.534-2.342,5.654v16    c0,4.418-3.582,8-8,8c-13.255,0-24,10.745-24,24c0,4.418-3.582,8-8,8c-13.255,0-24,10.745-24,24c0,4.418-3.582,8-8,8h-16    c-4.418,0.001-7.999,3.583-7.998,8.002c0,2.121,0.843,4.154,2.342,5.654l32,32c1.5,1.5,3.534,2.344,5.656,2.344h16    c13.255,0,24-10.745,24-24c0-4.418,3.582-8,8-8c13.255,0,24-10.745,24-24c0-4.418,3.582-8,8-8c13.255,0,24-10.745,24-24v-16    C320,261.878,319.156,259.844,317.656,258.344z M304,280c0,4.418-3.582,8-8,8c-13.255,0-24,10.745-24,24c0,4.418-3.582,8-8,8    c-13.255,0-24,10.745-24,24c0,4.418-3.582,8-8,8h-12.688l-16.2-16.2c11.951-1.563,20.889-11.747,20.888-23.8c0-4.418,3.582-8,8-8    c13.255,0,24-10.745,24-24c0-4.418,3.582-8,8-8c12.053,0.001,22.237-8.937,23.8-20.888l16.2,16.2V280z"/>
	</g>
</g>
<g>
	<g>
		<path d="M359.032,195.712l-1.376-1.368l-40-40l-33.376-33.368c-11.963-11.958-31.354-11.955-43.312,0.008    c-11.958,11.962-11.954,31.354,0.008,43.312l1.376,1.368l40,40l33.376,33.368c11.963,11.958,31.354,11.954,43.312-0.008    C370.998,227.061,370.995,207.67,359.032,195.712z M253.264,131.392c2.619-2.183,5.919-3.383,9.328-3.392h0.032    c3.876,0.012,7.592,1.55,10.344,4.28l19.72,19.72h-41.296C246.218,145.792,247.056,136.566,253.264,131.392z M267.312,168h41.376    l24,24h-41.376L267.312,168z M346.736,228.608c-2.619,2.183-5.919,3.383-9.328,3.392h-0.032    c-3.878-0.013-7.594-1.553-10.344-4.288L307.312,208h41.296C353.782,214.208,352.944,223.434,346.736,228.608z"/>
	</g>
</g>
<g>
	<g>
		<path d="M64,48v64H48V48H32v64H16V48H0v104c0.039,12.523,5.965,24.299,16,31.792V408c0,13.255,10.745,24,24,24s24-10.745,24-24    V183.792c10.035-7.493,15.961-19.269,16-31.792V48H64z M48,408c0,4.418-3.582,8-8,8s-8-3.582-8-8V192h16V408z M64,152    c0,13.255-10.745,24-24,24s-24-10.745-24-24v-24h48V152z"/>
	</g>
</g>
<g>
</g>
<g>
</g>
<g>
</g>
<g>
</g>
<g>
</g>
<g>
</g>
<g>
</g>
<g>
</g>
<g>
</g>
<g>
</g>
<g>
</g>
<g>
</g>
<g>
</g>
<g>
</g>
<g>
</g>
</symbol><symbol id="cake" viewBox="0 0 382.498 382.498">
<g>
	<g>
		<path d="M372.65,229.378c0.023-0.346,0.023-0.694,0-1.04c-0.2-0.448-0.441-0.876-0.72-1.28l-0.72-0.96l-142.32-136    c-1.161-1.133-2.64-1.887-4.24-2.16c-12.195-1.702-24.487-2.611-36.8-2.72c-4.696-3.652-10.171-6.171-16-7.36    c-1.36-14.72,0.24-48,27.68-62.72c3.888-2.209,5.249-7.152,3.04-11.04c-2.209-3.888-7.152-5.249-11.04-3.04    c-35.6,19.28-37.92,59.44-37.12,76.72c-7.137,1.599-13.68,5.176-18.88,10.32c-58.48,8.8-101.68,34.88-125.12,75.68v0.4v0.48    c-0.4,0.937-0.617,1.942-0.64,2.96v142.88c-0.064,3.912,2.711,7.296,6.56,8l346.96,64h1.44c4.418,0,8-3.582,8-8v-143.36    c0,0,0,0,0-0.56C372.733,230.177,372.706,229.776,372.65,229.378z M163.69,92.498c12.725-0.044,23.076,10.235,23.12,22.96    c0.044,12.725-10.235,23.076-22.96,23.12c-12.725,0.044-23.076-10.235-23.12-22.96c0-0.027,0-0.053,0-0.08    C140.73,102.845,150.996,92.542,163.69,92.498z M126.01,105.938L126.01,105.938c-0.823,3.107-1.253,6.306-1.28,9.52    c-0.632,21.552,16.326,39.536,37.878,40.168c21.552,0.632,39.536-16.326,40.168-37.878c0.169-5.761-0.94-11.488-3.246-16.77    c9.04,0.48,16,1.28,19.2,1.68l121.44,116.08l-308.64-56.96C51.29,133.298,83.13,114.658,126.01,105.938z M26.01,303.778v-38.4    l330.96,59.6l0.08,39.92L26.01,303.778z M26.01,249.138v-24l330.96,59.6l0.08,24.16L26.01,249.138z M26.01,209.058v-32    l245.52,45.36l85.36,16l0.16,30.48L26.01,209.058z"/>
	</g>
</g>
<g>
</g>
<g>
</g>
<g>
</g>
<g>
</g>
<g>
</g>
<g>
</g>
<g>
</g>
<g>
</g>
<g>
</g>
<g>
</g>
<g>
</g>
<g>
</g>
<g>
</g>
<g>
</g>
<g>
</g>
</symbol><symbol id="diet" viewBox="0 0 512.002 512.002">
<g>
	<g>
		<path d="M197.965,198.867c-4.313-4.721-10.454-7.486-16.847-7.585c-12.859-0.165-23.497,10.087-23.715,22.936    c-0.07,4.142,3.231,7.556,7.372,7.626c0.044,0.001,0.086,0.001,0.13,0.001c4.083,0,7.427-3.275,7.496-7.374    c0.077-4.589,3.849-8.271,8.482-8.191c2.313,0.036,4.446,0.996,6.007,2.704c2.794,3.059,7.539,3.273,10.596,0.479    C200.544,206.67,200.759,201.925,197.965,198.867z"/>
	</g>
</g>
<g>
	<g>
		<path d="M237.867,223.31c-2.299-5.404-6.774-9.669-12.281-11.702c-11.074-4.085-23.419,1.592-27.522,12.653    c-1.441,3.884,0.54,8.2,4.423,9.641c0.86,0.319,1.741,0.47,2.607,0.47c3.047,0,5.911-1.87,7.033-4.894    c1.232-3.322,4.945-5.022,8.265-3.797c1.669,0.616,2.973,1.859,3.67,3.499c1.621,3.811,6.027,5.589,9.837,3.967    C237.712,231.526,239.487,227.122,237.867,223.31z"/>
	</g>
</g>
<g>
	<g>
		<path d="M286.206,156.885c-2.932-2.927-7.681-2.921-10.606,0.011l-7.07,7.084c-2.926,2.932-2.921,7.681,0.011,10.606    c1.463,1.461,3.38,2.191,5.297,2.191c1.922,0,3.844-0.734,5.309-2.202l7.07-7.084C289.143,164.559,289.138,159.81,286.206,156.885    z"/>
	</g>
</g>
<g>
	<g>
		<path d="M239.545,253.709h-9.996c-4.143,0-7.5,3.358-7.5,7.5c0,4.142,3.357,7.5,7.5,7.5h9.996c4.143,0,7.5-3.358,7.5-7.5    C247.045,257.067,243.688,253.709,239.545,253.709z"/>
	</g>
</g>
<g>
	<g>
		<path d="M316.189,253.709h-9.997c-4.143,0-7.5,3.358-7.5,7.5c0,4.142,3.358,7.5,7.5,7.5h9.997c4.142,0,7.5-3.358,7.5-7.5    C323.689,257.067,320.331,253.709,316.189,253.709z"/>
	</g>
</g>
<g>
	<g>
		<path d="M511.761,388.942l-1.953-10.542c-1.245-6.736-7.127-11.625-13.986-11.625c-0.861,0-1.729,0.079-2.583,0.236l-39.76,7.304    l18.006-12.037c4.719-3.154,7.104-8.796,6.075-14.393c-0.286-1.533-0.822-3.004-1.598-4.381l-5.449-9.649    c-1.867-3.315-5.051-5.778-8.726-6.754c-1.8-0.48-3.682-0.587-5.518-0.348c2.005-11.066,3.039-22.368,3.039-33.873    c0-5.105-3.07-9.498-7.455-11.449c5.73-13.628,6.121-29.23,0.457-43.518c-0.459-1.162-1.141-2.199-2.024-3.083    c-0.876-0.876-1.901-1.553-3.064-2.02c-6.787-2.703-13.92-4.073-21.201-4.073c-0.931,0-1.858,0.024-2.782,0.068    c-1.039-20.933-18.364-37.644-39.514-37.644c-2.785,0-5.501,0.296-8.124,0.848c1.822-10.9,0.749-22.303-3.496-33.009    c-0.456-1.177-1.141-2.233-2.072-3.179c-0.896-0.896-1.947-1.587-3.113-2.05c-7.311-2.912-14.995-4.388-22.839-4.388    c-11.816,0-23.119,3.322-32.877,9.498c-3.565-10.327-9.444-20.022-17.658-28.255c-2.406-2.41-5.606-3.738-9.011-3.738    c-3.405,0-6.605,1.328-9.014,3.74l-36.313,36.396c-6.72-5.994-15.563-9.577-25.161-9.577c-2.178,0-4.377,0.191-6.536,0.567    c-7.823,1.362-15.022,5.191-20.541,10.799c-7.077-3.415-15.184-4.58-22.975-3.224c-1.714,0.298-3.377,0.718-4.991,1.23v-28.046    c0-19.314-15.523-35.055-34.725-35.387V87.48c5.878-1.017,10.366-6.14,10.366-12.304V39.137c0-6.892-5.607-12.5-12.5-12.5H61.154    c-6.893,0-12.5,5.608-12.5,12.5v36.039c0,6.164,4.488,11.287,10.366,12.304v15.904c-19.202,0.331-34.724,16.072-34.724,35.387    v218.896C9.322,371.19,0,390.059,0,410.925c0,41.046,36.025,74.44,80.307,74.44l300.187-0.088    c10.246-0.004,19.882-4.507,26.436-12.353c6.384-7.638,9.097-17.559,7.534-27.343l59.957,10.775    c0.83,0.149,1.68,0.225,2.523,0.225c2.99,0,5.855-0.918,8.281-2.652c3.119-2.228,5.23-5.677,5.793-9.46l1.624-10.897    c0.234-1.561,0.208-3.133-0.077-4.674c-1.032-5.572-5.275-9.993-10.81-11.261l-21.133-4.848l39.721-7.297    c3.746-0.688,6.996-2.791,9.152-5.922C511.647,396.447,512.451,392.673,511.761,388.942z M426.021,243.735    c4.515,0,8.954,0.715,13.222,2.124c3.814,11.614,2.386,24.141-3.586,34.489h-20.204l6.447-6.462    c2.926-2.932,2.92-7.681-0.013-10.607c-2.933-2.926-7.682-2.921-10.606,0.012l-3.411,3.419c-1.599-5.265-4.391-9.979-8.061-13.846    C407.253,246.953,416.391,243.735,426.021,243.735z M383.725,206.159c13.545,0,24.564,11.052,24.564,24.637    c0,0.252-0.012,0.501-0.019,0.751c-7.906,2.571-15.193,6.866-21.408,12.699c-0.989-0.375-1.992-0.723-3.022-1.008    c-2.194-11.852-10.181-21.352-20.732-25.789C367.487,210.665,375.085,206.159,383.725,206.159z M344.08,164.381    c5.094,0,10.1,0.824,14.924,2.454c3.877,11.528,3.085,23.911-1.855,34.637c-4.061,3.699-7.356,8.229-9.608,13.321    c-1.339,0.078-2.678,0.226-4.001,0.456c-5.877,1.023-11.357,3.573-15.943,7.271c-1.564-2.86-3.479-5.499-5.673-7.875    l17.199-17.238c2.926-2.932,2.92-7.681-0.013-10.606c-2.932-2.926-7.681-2.921-10.607,0.012l-18.798,18.841    c-3.577-1.691-7.443-2.867-11.506-3.417c1.755-8.95,6.098-17.383,12.816-24.117C319.854,169.26,331.597,164.381,344.08,164.381z     M286.61,280.348h-6.501c-1.095-2.786-3.802-4.761-6.977-4.761s-5.882,1.976-6.977,4.761h-7.648    c1.776-2.892,1.417-6.724-1.09-9.226c-2.932-2.926-7.681-2.921-10.607,0.011l-7.069,7.084c-0.635,0.636-1.123,1.361-1.482,2.131    h-15.265c-5.717-8.773-9.206-19.128-9.619-30.268h118.986c-0.413,11.14-3.902,21.495-9.619,30.268h-15.885    c-0.358-0.77-0.848-1.496-1.482-2.132l-7.068-7.084c-2.927-2.931-7.674-2.939-10.606-0.012    C285.192,273.622,284.833,277.455,286.61,280.348z M269.167,235.08c2.827-10.477,12.384-18.208,23.71-18.208    c11.327,0,20.884,7.732,23.711,18.208H269.167z M284.504,142.859c7.134,7.71,11.851,16.864,14.164,26.486    c-3.829,4.161-7.01,8.759-9.519,13.652c-1.139-0.698-2.474-1.107-3.907-1.107h-9.994c-4.142,0-7.5,3.358-7.5,7.5    c0,4.142,3.358,7.5,7.5,7.5h8.767c-0.493,2.071-0.876,4.167-1.154,6.279c-2.978,0.782-5.822,1.896-8.484,3.314    c-4.999-8.627-13.277-15.056-23.085-17.635c-0.003-0.021-0.007-0.042-0.011-0.063c-0.588-3.394-1.614-6.614-3.013-9.607    L284.504,142.859z M148.926,210.535c-0.44-1.23-0.773-2.492-0.992-3.758c-2.151-12.401,6.209-24.249,18.632-26.412    c1.31-0.228,2.641-0.344,3.955-0.344c4.941,0,9.663,1.576,13.654,4.557c1.651,1.234,3.739,1.733,5.771,1.381    c2.032-0.353,3.829-1.526,4.969-3.245c3.521-5.311,8.908-8.835,15.168-9.925c1.313-0.229,2.647-0.344,3.964-0.344    c11.112,0,20.556,7.95,22.454,18.905c0.218,1.255,0.33,2.563,0.332,3.888c0.007,3.882,2.976,7.118,6.844,7.458    c8.385,0.737,15.523,6.014,18.832,13.448c-4.43,5.317-7.501,11.809-8.667,18.936H211.07c-5.318,0-9.881,3.283-11.784,7.929    c-9.41-6.409-20.5-9.862-32.122-9.862c-7.281,0-14.414,1.371-21.206,4.075c-1.152,0.46-2.182,1.139-3.06,2.017    c-0.89,0.89-1.573,1.933-2.021,3.077c-1.726,4.353-2.877,8.828-3.499,13.331c-2.688-3.06-4.582-6.865-5.322-11.135    c-1.764-10.176,3.563-20.308,12.95-24.64C148.534,218.244,150.235,214.192,148.926,210.535z M171.284,278.297l2.046,2.051h-18.013    c-4.044-9.382-4.658-20.061-1.375-30.077c4.274-1.411,8.711-2.125,13.222-2.125c11.301,0,21.932,4.417,29.933,12.436    c1.064,1.067,2.055,2.185,2.986,3.34c1.271,5.754,3.224,11.251,5.74,16.425H194.52l-12.617-12.646    c-2.927-2.931-7.676-2.939-10.606-0.012C168.364,270.616,168.358,275.365,171.284,278.297z M139.344,280.348h-26.737    c1.192-7.265,5.562-13.458,11.628-17.11c3.591,4.811,8.278,8.701,13.678,11.336C138.295,276.52,138.764,278.449,139.344,280.348z     M63.654,41.637h55.991v31.039H63.654V41.637z M109.279,87.676v15.693H74.021V87.676H109.279z M39.297,169.187H88    c4.143,0,7.5-3.358,7.5-7.5c0-4.142-3.357-7.5-7.5-7.5H39.297v-15.416c0-11.25,9.124-20.402,20.339-20.402h64.028    c11.216,0,20.34,9.152,20.34,20.402v15.416H130c-4.143,0-7.5,3.358-7.5,7.5c0,4.142,3.357,7.5,7.5,7.5h14.004v6.657    c-8.593,8.425-13.056,20.78-10.852,33.489c0.004,0.025,0.009,0.051,0.013,0.077c-12.032,8.255-18.443,22.931-15.89,37.664    c0.149,0.86,0.336,1.706,0.54,2.543c-3.747,2.066-7.112,4.734-9.996,7.856H39.297V169.187z M39.296,272.472L39.296,272.472H99.11    c-0.796,2.528-1.358,5.159-1.632,7.876h-1.264c-6.903,0-12.52,5.621-12.52,12.53c0,11.909,1.107,23.6,3.252,35.038    c-2.155-0.173-4.365-0.266-6.613-0.266c-9.07,0-17.712,1.439-24.331,4.053c-10.125,3.998-12.924,9.675-13.535,13.603    c-1.073,0.534-2.127,1.098-3.171,1.675V272.472z M134.267,364.607c2.701,2.161,4.352,3.998,5.309,5.323    c-0.09,0.001-0.184,0.002-0.279,0.002c-4.245,0-11.872-1.711-20.545-6.512c-3.229-1.789-6.204-3.81-8.604-5.843    c-2.798-2.371-6.901-2.369-9.697,0.001c-2.4,2.035-5.374,4.055-8.6,5.84c-8.675,4.803-16.302,6.514-20.546,6.514    c-0.097,0-0.19-0.001-0.281-0.002c0.956-1.325,2.607-3.163,5.309-5.325c2.361-1.89,3.356-5.014,2.523-7.921    c-0.834-2.908-3.332-5.031-6.337-5.383c-7.319-0.858-11.947-2.721-14.114-4.077c2.715-1.691,9.579-4.574,21.931-4.574    c10.23,0,17.707,2.151,21.293,4.165c2.281,1.28,5.062,1.28,7.343,0.001c3.588-2.014,11.066-4.165,21.296-4.165    c12.353,0,19.216,2.884,21.93,4.574c-2.166,1.357-6.795,3.219-14.116,4.077c-3.005,0.353-5.504,2.475-6.337,5.384    C130.909,359.594,131.904,362.718,134.267,364.607z M119.264,455.893l0.258,1.39c0.892,4.817,2.773,9.238,5.401,13.082H80.307    c-36.01,0-65.307-26.664-65.307-59.44c0-22.399,13.688-41.935,33.844-52.065c2.315,1.728,5.201,3.218,8.625,4.42    c-1.358,2.319-2.304,4.813-2.527,7.414c-0.296,3.458,0.762,6.742,2.982,9.248c2.933,3.312,7.435,4.991,13.381,4.991    c7.924,0,18.321-3.137,27.811-8.391c2.185-1.209,4.251-2.486,6.185-3.82c1.933,1.333,3.999,2.61,6.185,3.821    c9.49,5.253,19.887,8.389,27.811,8.39h0.001c5.944,0,10.446-1.679,13.378-4.99c2.221-2.506,3.28-5.79,2.983-9.249    c-0.223-2.601-1.169-5.095-2.527-7.414c3.424-1.203,6.311-2.693,8.626-4.42c15.985,8.034,27.896,21.985,32.143,38.588    l-53.045,20.151C125.329,423.499,116.248,439.603,119.264,455.893z M395.418,463.307c-3.698,4.428-9.141,6.968-14.931,6.97    l-7.872,0.003l-4.918-26.555c-0.755-4.073-4.666-6.766-8.741-6.009c-4.072,0.754-6.763,4.667-6.009,8.74l4.414,23.829    l-25.806,0.01l-3.325-17.957c-0.755-4.073-4.667-6.763-8.741-6.009c-4.072,0.754-6.763,4.667-6.009,8.74l2.82,15.232    l-60.025,0.023l-4.518-24.388c-0.756-4.073-4.666-6.763-8.741-6.008c-4.073,0.754-6.763,4.668-6.009,8.741l4.013,21.661    l-87.644,0.034c-0.002,0-0.004,0-0.006,0c-9.372,0-17.404-6.65-19.102-15.816l-0.258-1.39c-1.695-9.156,3.423-18.213,12.17-21.537    l29.477-11.198l2.196,11.852c0.669,3.611,3.821,6.135,7.365,6.135c0.454,0,0.914-0.042,1.376-0.127    c4.072-0.755,6.762-4.668,6.007-8.741l-2.693-14.533l43.755-16.622c3.872-1.471,5.819-5.803,4.348-9.675    c-1.471-3.873-5.808-5.819-9.674-4.348l-20.361,7.735c-5.712-20.223-20.386-37.116-39.845-46.794    c-0.611-3.928-3.41-9.605-13.534-13.603c-6.619-2.614-15.261-4.053-24.331-4.053c-6.242,0-12.203,0.689-17.465,1.944v-4.53    c0-4.142-3.357-7.5-7.5-7.5c-1.751,0-3.357,0.604-4.634,1.61c-1.183-7.823-1.845-15.769-1.955-23.827H343    c4.143,0,7.5-3.358,7.5-7.5c0-4.142-3.357-7.5-7.5-7.5h-3.069c4.776-9.836,7.474-20.864,7.474-32.519    c0-6.617-5.063-12.068-11.515-12.687c2.809-2.649,6.315-4.435,10.223-5.116c1.145-0.199,2.307-0.3,3.455-0.3    c9.683,0,17.911,6.927,19.564,16.469c0.191,1.105,0.289,2.245,0.29,3.39c0.005,3.884,2.975,7.122,6.844,7.462    c8.963,0.787,16.296,7.528,17.833,16.392c0.408,2.357,0.357,4.683-0.052,6.909H386c-4.143,0-7.5,3.358-7.5,7.5    c0,4.142,3.357,7.5,7.5,7.5h58.292c-0.186,13.758-1.958,27.197-5.263,40.236l-40.646,23.994    c-2.486-8.652-8.264-15.991-16.225-20.447c-8.929-4.997-19.54-5.778-29.11-2.143l-83.711,31.802    c-3.873,1.471-5.819,5.803-4.348,9.675c1.471,3.873,5.807,5.817,9.674,4.348l11.028-4.189l3.424,18.487    c0.669,3.611,3.821,6.136,7.366,6.136c0.453,0,0.913-0.042,1.375-0.127c4.072-0.754,6.763-4.667,6.009-8.74l-3.921-21.17    l58.429-22.197c5.414-2.056,11.412-1.615,16.459,1.21c5.038,2.819,8.528,7.679,9.576,13.331l15.173,81.915    C400.627,453.116,399.11,458.889,395.418,463.307z M422.178,404.601c-3.499,0.643-6.064,3.655-6.143,7.212    c-0.078,3.557,2.354,6.679,5.821,7.474l55.84,12.808l-1.395,9.359l-64.734-11.633l-10.119-54.634l56.384-33.284l4.697,8.317    l-47.558,31.791c-2.957,1.977-4.119,5.759-2.781,9.055c1.337,3.296,4.807,5.2,8.305,4.557l74.706-13.723l1.664,8.98    L422.178,404.601z"/>
	</g>
</g>
<g>
</g>
<g>
</g>
<g>
</g>
<g>
</g>
<g>
</g>
<g>
</g>
<g>
</g>
<g>
</g>
<g>
</g>
<g>
</g>
<g>
</g>
<g>
</g>
<g>
</g>
<g>
</g>
<g>
</g>
</symbol><symbol id="fast-food" viewBox="0 0 496 496">
<g>
	<g>
		<g>
			<path d="M472,272V168c0-13.232-10.768-24-24-24h-16c-6.168,0-11.744,2.408-16,6.24c-4.256-3.84-9.832-6.24-16-6.24h-16     c-6.168,0-11.744,2.408-16,6.24c-4.256-3.84-9.832-6.24-16-6.24h-16c-13.232,0-24,10.768-24,24v102.656     c-18.456-12.792-45.392-23.68-84.832-28.288l12.6-88.208c0.152-1.064,0.232-2.144,0.232-3.224     C240,138.288,229.712,128,217.064,128H144V56c0-4.408,3.592-8,8-8h64c13.232,0,24-10.768,24-24S229.232,0,216,0h-72     c-26.472,0-48,21.528-48,48v80H22.936C10.288,128,0,138.288,0,150.936c0,1.08,0.08,2.16,0.232,3.248l19.28,134.944     C0.496,311.776,0,334.112,0,336c0,13.952,9.024,25.712,21.496,30.088C18.032,371.2,16,377.368,16,384     c0,8.528,3.4,16.232,8.856,21.976C10.056,414.16,0,429.92,0,448c0,26.472,21.528,48,48,48h240h16h192V328v-8v-24     C496,282.768,485.232,272,472,272z M424,168c0-4.408,3.592-8,8-8h16c4.408,0,8,3.592,8,8v104h-32V168z M376,168     c0-4.408,3.592-8,8-8h16c4.408,0,8,3.592,8,8v104h-32V168z M328,168c0-4.408,3.592-8,8-8h16c4.408,0,8,3.592,8,8v104h-32V168z      M200,16h16c4.408,0,8,3.592,8,8s-3.592,8-8,8h-16V16z M168,16h16v16h-16V16z M112,48c0-17.648,14.352-32,32-32h8v16     c-13.232,0-24,10.768-24,24v72h-16V48z M17.224,160l-1.152-8.056c-0.048-0.336-0.072-0.672-0.072-1.008     c0-3.824,3.112-6.936,6.936-6.936H96h48h73.064c3.824,0,6.936,3.112,6.936,6.936c0,0.336-0.024,0.672-0.064,0.984l-1.16,8.08H200     v16h20.488l-4.568,32H24.08l-4.568-32H184v-16H17.224z M213.64,224l-2.416,16.928C202.656,240.336,193.632,240,184,240h-16     c-69.712,0-110.432,16.232-134.296,35.352L26.368,224H213.64z M16,336c0-0.8,1.736-80,152-80h16c149.224,0,151.96,76.784,152,80     c0,8.824-7.176,16-16,16h-8h-8H48H32C23.176,352,16,344.824,16,336z M48,400c-8.824,0-16-7.176-16-16c0-8.824,7.176-16,16-16h256     c8.824,0,16,7.176,16,16c0,8.824-7.176,16-16,16H48z M270.608,416l-32.824,38.296L150.24,416H270.608z M304,480h-16H48     c-17.648,0-32-14.352-32-32s14.352-32,32-32h62.328l131.888,57.704L291.68,416H304c17.648,0,32,14.352,32,32S321.648,480,304,480     z M327.152,405.976C332.6,400.232,336,392.528,336,384c0-5.856-1.696-11.272-4.448-16H448v80h-96c0-5.616-1.024-10.984-2.8-16     H400v-16h-60.32C336.096,412.008,331.88,408.592,327.152,405.976z M480,320h-16v16h16v144H339.68     c4.152-4.624,7.408-10.032,9.52-16H464V352H347.552c2.752-4.728,4.448-10.144,4.448-16h96v-16h-98.712     c-2.6-8.896-7.736-20.44-17.752-32H472c4.408,0,8,3.584,8,8V320z"/>
			<rect x="416" y="416" width="16" height="16"/>
			<rect x="104" y="272" width="16" height="16"/>
			<rect x="136" y="288" width="16" height="16"/>
			<rect x="168" y="272" width="16" height="16"/>
			<rect x="216" y="296" width="16" height="16"/>
			<rect x="256" y="272" width="16" height="16"/>
			<rect x="56" y="304" width="16" height="16"/>
		</g>
	</g>
</g>
<g>
</g>
<g>
</g>
<g>
</g>
<g>
</g>
<g>
</g>
<g>
</g>
<g>
</g>
<g>
</g>
<g>
</g>
<g>
</g>
<g>
</g>
<g>
</g>
<g>
</g>
<g>
</g>
<g>
</g>
</symbol><symbol id="grill" viewBox="-26 1 511 511.99895"><path d="m161.109375 166.441406c1.53125 1.53125 3.539063 2.300782 5.546875 2.300782s4.015625-.765626 5.546875-2.300782l126.792969-126.792968c3.0625-3.0625 3.0625-8.027344 0-11.089844s-8.03125-3.0625-11.089844 0l-126.796875 126.792968c-3.0625 3.0625-3.0625 8.027344 0 11.089844zm0 0"/><path d="m91.355469 140.46875c2.003906 0 4.011719-.765625 5.542969-2.296875l98.523437-98.523437c3.066406-3.0625 3.066406-8.027344 0-11.089844-3.0625-3.0625-8.027344-3.0625-11.089844 0l-98.523437 98.523437c-3.0625 3.0625-3.0625 8.027344 0 11.089844 1.53125 1.53125 3.539062 2.296875 5.546875 2.296875zm0 0"/><path d="m264.679688 166.441406c1.53125 1.53125 3.539062 2.296875 5.542968 2.296875 2.007813 0 4.015625-.765625 5.546875-2.296875l98.523438-98.523437c3.0625-3.0625 3.0625-8.03125 0-11.09375s-8.027344-3.0625-11.089844 0l-98.523437 98.523437c-3.0625 3.0625-3.0625 8.03125 0 11.09375zm0 0"/><path d="m428.875 237.5c1.050781.476562 2.148438.699219 3.234375.699219 2.984375 0 5.835937-1.710938 7.148437-4.609375 13.503907-29.808594 20.347657-61.644532 20.347657-94.625v-41.464844c0-27.359375-24.800781-52.457031-69.839844-70.667969-42.785156-17.304687-99.507813-26.832031-159.710937-26.832031-60.207032 0-116.929688 9.527344-159.714844 26.832031-45.039063 18.210938-69.839844 43.308594-69.839844 70.667969v41.464844c0 61.316406 23.878906 118.964844 67.234375 162.320312 7.023437 7.023438 14.425781 13.523438 22.152344 19.507813l-66.355469 139.613281c-4.140625 8.707031-4.644531 18.5-1.414062 27.585938 3.226562 9.082031 9.800781 16.359374 18.507812 20.496093 4.984375 2.371094 10.246094 3.492188 15.429688 3.492188 13.503906 0 26.476562-7.609375 32.648437-20.59375l64.609375-135.953125c13.511719 4.78125 27.503906 8.285156 41.828125 10.457031v50.941406c0 19.253907 15.664063 34.917969 34.917969 34.917969 9.324218 0 18.089844-3.632812 24.6875-10.230469 6.589844-6.601562 10.21875-15.371093 10.21875-24.6875v-50.960937c14.34375-2.183594 28.332031-5.695313 41.820312-10.457032l64.625 135.96875c4.136719 8.707032 11.414063 15.277344 20.492188 18.511719 3.953125 1.40625 8.039062 2.105469 12.117187 2.105469 5.285157 0 10.542969-1.175781 15.460938-3.511719 17.96875-8.539062 25.640625-30.105469 17.101562-48.078125l-66.328125-139.542968c20.679688-15.980469 38.785156-35.636719 53.363282-58.449219 2.332031-3.652344 1.265624-8.5-2.382813-10.832031-3.652344-2.332032-8.5-1.265626-10.832031 2.382812-39.5625 61.90625-106.980469 98.867188-180.347656 98.867188-104.191407 0-191.203126-74.898438-210.066407-173.679688 11.789063 11.40625 28.734375 21.738281 50.351563 30.480469 42.789062 17.300781 99.507812 26.832031 159.714844 26.832031 60.203124 0 116.925781-9.53125 159.714843-26.832031 21.65625-8.757813 38.617188-19.113281 50.410157-30.539063-3.128907 16.5-8.203126 32.554688-15.210938 48.019532-1.789062 3.945312-.039062 8.59375 3.90625 10.382812zm-354.34375 247.152344c-4.824219 10.15625-17.015625 14.492187-27.175781 9.667968-4.917969-2.335937-8.632813-6.453124-10.460938-11.585937-1.824219-5.132813-1.539062-10.667969.804688-15.589844l65.121093-137.023437c11.386719 7.613281 23.386719 14.136718 35.859376 19.550781zm347.882812-17.507813c4.828126 10.15625.488282 22.347657-9.667968 27.175781-4.921875 2.335938-10.457032 2.617188-15.585938.792969s-9.242187-5.539062-11.582031-10.460937l-64.148437-134.96875c12.519531-5.417969 24.515624-11.964844 35.867187-19.53125zm-173.136718-99.441406v49.128906c0 5.132813-2 9.964844-5.628906 13.601563-3.628907 3.632812-8.457032 5.628906-13.589844 5.628906-10.605469 0-19.234375-8.628906-19.234375-19.230469v-49.117187c6.363281.527344 12.773437.808594 19.230469.808594 6.457031 0 12.863281-.296876 19.222656-.820313zm134.609375-172.609375c-40.964844 16.5625-95.597657 25.6875-153.835938 25.6875-58.234375 0-112.867187-9.125-153.832031-25.6875-38.152344-15.429688-60.035156-35.886719-60.035156-56.128906v-5.179688c5.308594 5.824219 11.917968 11.40625 19.796875 16.660156 3.601562 2.402344 8.472656 1.429688 10.875-2.175781 2.40625-3.601562 1.433593-8.472656-2.171875-10.875-13-8.671875-28.5-22.628906-28.5-39.894531 0-20.238281 21.882812-40.695312 60.035156-56.125 40.964844-16.566406 95.597656-25.6875 153.835938-25.6875 58.238281 0 112.867187 9.121094 153.832031 25.6875 38.152343 15.429688 60.035156 35.886719 60.035156 56.125 0 20.242188-21.882813 40.695312-60.035156 56.125-40.964844 16.566406-95.59375 25.6875-153.832031 25.6875-58.238282 0-112.871094-9.121094-153.832032-25.6875-4.011718-1.625-8.589844.316406-10.214844 4.332031s.316407 8.585938 4.332032 10.210938c42.789062 17.304687 99.507812 26.832031 159.714844 26.832031 60.203124 0 116.925781-9.527344 159.714843-26.832031 24.058594-9.730469 42.339844-21.421875 54.152344-34.378907v5.179688c0 20.238281-21.882813 40.695312-60.035156 56.125zm0 0"/></symbol><symbol id="heart" viewBox="0 0 471.701 471.701">
<g>
	<path d="M433.601,67.001c-24.7-24.7-57.4-38.2-92.3-38.2s-67.7,13.6-92.4,38.3l-12.9,12.9l-13.1-13.1   c-24.7-24.7-57.6-38.4-92.5-38.4c-34.8,0-67.6,13.6-92.2,38.2c-24.7,24.7-38.3,57.5-38.2,92.4c0,34.9,13.7,67.6,38.4,92.3   l187.8,187.8c2.6,2.6,6.1,4,9.5,4c3.4,0,6.9-1.3,9.5-3.9l188.2-187.5c24.7-24.7,38.3-57.5,38.3-92.4   C471.801,124.501,458.301,91.701,433.601,67.001z M414.401,232.701l-178.7,178l-178.3-178.3c-19.6-19.6-30.4-45.6-30.4-73.3   s10.7-53.7,30.3-73.2c19.5-19.5,45.5-30.3,73.1-30.3c27.7,0,53.8,10.8,73.4,30.4l22.6,22.6c5.3,5.3,13.8,5.3,19.1,0l22.4-22.4   c19.6-19.6,45.7-30.4,73.3-30.4c27.6,0,53.6,10.8,73.2,30.3c19.6,19.6,30.3,45.6,30.3,73.3   C444.801,187.101,434.001,213.101,414.401,232.701z" stroke="yellowgreen"/>
</g>
<g>
</g>
<g>
</g>
<g>
</g>
<g>
</g>
<g>
</g>
<g>
</g>
<g>
</g>
<g>
</g>
<g>
</g>
<g>
</g>
<g>
</g>
<g>
</g>
<g>
</g>
<g>
</g>
<g>
</g>
</symbol><symbol id="love" viewBox="0 0 50 50">
<path style="fill:#D75A4A;stroke:#fff" d="M24.85,10.126c2.018-4.783,6.628-8.125,11.99-8.125c7.223,0,12.425,6.179,13.079,13.543
	c0,0,0.353,1.828-0.424,5.119c-1.058,4.482-3.545,8.464-6.898,11.503L24.85,48L7.402,32.165c-3.353-3.038-5.84-7.021-6.898-11.503
	c-0.777-3.291-0.424-5.119-0.424-5.119C0.734,8.179,5.936,2,13.159,2C18.522,2,22.832,5.343,24.85,10.126z"/>
<g>
</g>
<g>
</g>
<g>
</g>
<g>
</g>
<g>
</g>
<g>
</g>
<g>
</g>
<g>
</g>
<g>
</g>
<g>
</g>
<g>
</g>
<g>
</g>
<g>
</g>
<g>
</g>
<g>
</g>
</symbol><symbol id="meat" viewBox="0 0 512 512">
<g>
	<g>
		<path d="M468.467,125.688c-23.347-18.607-56.3-33.841-97.944-45.277c-80.091-21.994-170.408-24.368-205.522-24.368    C74.019,56.043,0,130.063,0,221.045v69.91c0,90.983,74.019,165.002,165.001,165.002c41.953,0,73.46-13.142,106.817-27.056    c34.496-14.389,70.165-29.267,120.331-29.267c66.086,0,119.851-53.766,119.851-119.851v-69.91    C512,177.034,497.353,148.71,468.467,125.688z M460.046,296.642c3.786,4.023,10.115,4.212,14.136,0.427    c6.782-6.386,12.748-13.501,17.818-21.162v3.876c0,55.059-44.793,99.851-99.851,99.851c-54.17,0-91.718,15.662-128.03,30.808    c-31.457,13.121-61.169,25.515-99.118,25.515c-76.82,0-139.869-60.053-144.693-135.678c28.08,51.073,82.409,85.766,144.693,85.766    c41.953,0,73.46-13.142,106.817-27.056c34.496-14.389,70.165-29.267,120.331-29.267c3.727,0,7.492-0.176,11.192-0.522    c5.499-0.515,9.539-5.39,9.024-10.889c-0.515-5.498-5.396-9.537-10.889-9.023c-3.083,0.288-6.22,0.435-9.327,0.435    c-54.17,0-91.718,15.662-128.03,30.808c-31.457,13.121-61.169,25.515-99.118,25.515c-79.954,0-145.001-65.047-145.001-145    c0-79.954,65.047-145.002,145.001-145.002c34.303,0,122.481,2.305,200.226,23.654C449.347,122.799,492,159.867,492,209.873    c0,27.295-11.492,53.769-31.528,72.633C456.451,286.292,456.26,292.621,460.046,296.642z"/>
	</g>
</g>
<g>
	<g>
		<path d="M451.823,303.025c-2.352-4.997-8.311-7.142-13.306-4.79c-0.072,0.033-0.167,0.08-0.238,0.115    c-4.939,2.47-6.941,8.477-4.472,13.416c1.752,3.504,5.284,5.53,8.953,5.53c1.482,0,2.986-0.331,4.404-1.028    C452.067,313.875,454.154,307.978,451.823,303.025z"/>
	</g>
</g>
<g>
	<g>
		<path d="M237.188,98.862l-0.515-0.042c-5.514-0.43-10.325,3.668-10.764,9.174c-0.439,5.505,3.668,10.324,9.173,10.764l0.511,0.04    c0.271,0.022,0.54,0.033,0.808,0.033c5.161,0,9.538-3.97,9.958-9.203C246.799,104.122,242.693,99.303,237.188,98.862z"/>
	</g>
</g>
<g>
	<g>
		<path d="M465.756,182.933c-9.919-19.604-31.989-36.546-65.599-50.354c-27.195-11.173-56.936-18.231-77.097-22.186    c-12.083-2.369-24.745-4.485-37.635-6.287c-5.467-0.772-10.523,3.048-11.289,8.519c-0.765,5.47,3.049,10.523,8.519,11.288    c12.53,1.752,24.829,3.807,36.556,6.107c68.69,13.471,115.599,36.048,128.699,61.94c2.752,5.441,4.09,11.3,4.09,17.912    c0,33.001-26.849,59.85-59.851,59.85c-33.368,0-65.771,5.453-99.061,16.672c-14.338,4.833-28.26,10.61-41.723,16.198    c-8.905,3.695-18.113,7.517-27.253,10.98c-23.065,8.742-40.744,12.472-59.111,12.472c-57.898,0-105.002-47.103-105.002-105    c0-57.898,47.104-105.002,105.002-105.002c11.295,0,22.762,0.214,34.08,0.636c1.921,0.071,3.844,0.148,5.768,0.233    c5.513,0.25,10.188-4.032,10.431-9.55c0.244-5.517-4.032-10.188-9.549-10.431c-1.97-0.087-3.94-0.166-5.906-0.239    C188.26,96.26,176.543,96.042,165,96.042c-68.926,0-125.002,56.075-125.002,125.002c0,68.925,56.075,125,125.002,125    c20.935,0,40.733-4.118,66.199-13.77c9.431-3.574,18.785-7.456,27.832-11.211c13.153-5.458,26.754-11.103,40.444-15.717    c31.198-10.514,61.512-15.625,92.674-15.625c44.03,0.002,79.851-35.819,79.851-79.848    C472,200.051,469.957,191.239,465.756,182.933z"/>
	</g>
</g>
<g>
	<g>
		<path d="M174.578,135.82c-27.956,0-50.701,20.625-50.701,45.977s22.745,45.977,50.701,45.977    c27.957,0,50.701-20.625,50.701-45.977S202.535,135.82,174.578,135.82z M174.578,207.773c-16.929,0-30.701-11.653-30.701-25.977    c0-14.323,13.772-25.977,30.701-25.977s30.701,11.653,30.701,25.977C205.279,196.12,191.507,207.773,174.578,207.773z"/>
	</g>
</g>
<g>
</g>
<g>
</g>
<g>
</g>
<g>
</g>
<g>
</g>
<g>
</g>
<g>
</g>
<g>
</g>
<g>
</g>
<g>
</g>
<g>
</g>
<g>
</g>
<g>
</g>
<g>
</g>
<g>
</g>
</symbol><symbol id="mushroom" viewBox="0 0 512.001 512.001">
<g>
	<g>
		<g>
			<path d="M342.508,302.746c-43.269,0-69.254,9.707-92.682,34.621c-3.757,3.995-5.732,9.214-5.564,14.694     c0.169,5.481,2.462,10.568,6.457,14.325c8.245,7.753,21.264,7.355,29.019-0.893c13.227-14.067,27.147-21.69,62.77-21.69     c27.481,0,45.624,3.457,62.77,21.69c3.864,4.109,9.316,6.466,14.957,6.466c5.246,0,10.24-1.979,14.061-5.573     c8.247-7.754,8.648-20.772,0.893-29.02C411.76,312.452,385.775,302.746,342.508,302.746z M424.02,355.46     c-1.028,0.967-2.373,1.5-3.785,1.5c-1.543,0-2.975-0.619-4.03-1.742c-20.685-21.996-43.534-26.415-73.698-26.415     c-40.687,0-58.364,10.107-73.697,26.415c-2.091,2.223-5.597,2.329-7.818,0.24c-1.076-1.012-1.694-2.382-1.739-3.858     c-0.045-1.477,0.487-2.883,1.499-3.959c20.494-21.794,42.652-29.898,81.755-29.898c39.102,0,61.26,8.103,81.754,29.897     C426.35,349.864,426.243,353.37,424.02,355.46z"/>
			<path d="M490.794,281.344c-24.517-24.079-52.024-36.813-79.742-43.433l-14.196-64.708c29.83,9.63,62.73-1.836,80.031-28.617     c13.887-21.497,14.623-49.076,1.922-71.975c-2.01-3.623-6.575-4.931-10.195-2.921c-3.622,2.009-4.93,6.574-2.921,10.195     c10.011,18.049,9.474,39.722-1.404,56.56c-14.44,22.354-42.716,31.124-67.226,20.852c-4.067-1.703-8.702-1.003-12.095,1.828     c-3.419,2.851-4.95,7.319-3.998,11.658l14.026,63.934c-17.879-2.871-35.624-3.616-52.489-3.616     c-6.618,0-13.373,0.121-20.217,0.432c-0.479-1.115-0.974-2.212-1.497-3.27c-12.951-26.191-30.641-45.346-50.397-59.945     c9.376-13.115,22.294-21.882,52.706-28.554c26.843-5.889,45.305-6.401,65.961,7.736c4.653,3.185,10.482,4.319,15.995,3.11     c5.123-1.124,9.577-4.127,12.54-8.458c6.394-9.342,3.994-22.142-5.348-28.537c-28.224-19.315-55.685-23.229-97.947-13.957     c-39.282,8.619-62.158,22.22-79.28,47.653c-12.57-6.025-25.333-10.951-37.738-15.272c-7.499-2.613-15.237-5.133-23.188-7.403     c0.996-2.037,2.102-4.015,3.337-5.906c17.726-27.148,46.407-57.217,124.731-74.401c42.89-9.41,93.221-15.171,141.303,13.445     c3.561,2.118,8.161,0.95,10.281-2.609c2.118-3.56,0.95-8.162-2.609-10.281C398.571,13.6,344.708,19.644,298.951,29.683     c-46.915,10.293-99.533,27.948-134.076,80.85c-2.128,3.257-3.981,6.696-5.544,10.277c-36.397-8.431-76.677-9.902-118.607,9.898     c-17.02,8.038-30.393,22.93-36.686,40.857c-6.25,17.801-5.218,36.766,2.907,53.399c13.993,28.648,45.295,43.944,76.059,37.932     l-23.212,66.638c-5.001,14.359,2.612,30.112,16.972,35.114l40.212,14.006c0.816,0.285,1.648,0.419,2.467,0.419     c3.103,0,6.005-1.94,7.083-5.035c1.362-3.912-0.704-8.188-4.616-9.55l-40.211-14.005c-6.551-2.282-10.023-9.467-7.741-16.016     l25.107-72.081c1.463-4.198,0.474-8.816-2.583-12.053c-3.035-3.214-7.552-4.461-11.791-3.252     c-25.556,7.283-52.589-4.787-64.268-28.7c-6.351-13-7.144-27.863-2.233-41.849c4.975-14.168,15.522-25.927,28.938-32.263     c29.319-13.844,69.498-24.442,145.223,1.936c41.865,14.582,87.986,36.284,113.833,86.451     c-21.206,2.042-42.924,6.544-63.883,15.879c-13.912-22.483-34.334-36.909-68.582-48.84c-40.86-14.234-68.594-13.614-98.914,2.208     c-10.034,5.238-13.937,17.663-8.702,27.698c5.237,10.036,17.662,13.939,27.698,8.703c17.118-8.934,32.771-11.553,66.413,0.165     c21.622,7.532,36.658,15.362,46.937,31.405c-4.39,3.504-8.705,7.318-12.93,11.468c-13.43,13.189-21.158,31.652-21.204,50.653     c-0.013,5.523,0.613,10.929,1.81,16.148l-6.666,19.137c-2.071,5.943-8.271,9.465-14.413,8.185     c-4.055-0.842-8.027,1.762-8.869,5.817c-0.843,4.056,1.761,8.026,5.816,8.87c1.864,0.387,3.728,0.574,5.571,0.574     c11.503,0,22.146-7.28,26.06-18.51l1.106-3.175c2.783,4.468,6.082,8.643,9.897,12.425c22.639,22.45,57.229,26.602,84.305,10.802     v70.565c0,15.206,12.371,27.578,27.578,27.578h74.596c15.206,0,27.578-12.371,27.578-27.578v-70.564     c27.078,15.799,61.667,11.647,84.305-10.802c13.144-13.035,20.357-30.605,20.312-49.471     C511.953,312.995,504.225,294.533,490.794,281.344z M257.997,159.883c-3.145-1.969-6.324-3.845-9.531-5.631     c14.747-20.972,34.847-32.437,69.052-39.941c38.192-8.381,61.573-5.212,86.262,11.684c2.517,1.723,3.163,5.171,1.44,7.687     c-0.798,1.166-1.997,1.976-3.376,2.278c-1.507,0.33-3.039,0.033-4.311-0.838c-24.918-17.053-48.183-16.472-77.645-10.009     C284.943,132.781,269.108,144.226,257.997,159.883z M165.146,224.305c-38.42-13.383-58.438-9.654-78.284,0.702     c-2.704,1.411-6.052,0.36-7.462-2.344c-1.411-2.703-0.359-6.05,2.344-7.461c26.524-13.84,50.115-14.204,87.041-1.341     c30.014,10.455,47.997,22.747,60.034,41.434c-3.193,1.792-6.359,3.718-9.498,5.777     C206.872,242.012,189.068,232.638,165.146,224.305z M481.127,370.817c-18.896,18.739-48.394,21.247-70.133,5.962     c-3.607-2.535-8.282-2.845-12.204-0.808c-3.951,2.051-6.405,6.087-6.405,10.533v76.329c0,6.936-5.643,12.578-12.578,12.578     H305.21c-6.936,0-12.578-5.643-12.578-12.578v-76.329c0-4.445-2.454-8.48-6.404-10.532c-1.722-0.895-3.59-1.337-5.448-1.337     c-2.375,0-4.734,0.722-6.758,2.144c-21.742,15.285-51.236,12.776-70.133-5.962c-6.738-6.682-11.465-14.912-13.923-23.964     c-0.049-0.221-0.108-0.438-0.177-0.653c-1.175-4.551-1.787-9.301-1.775-14.167c0.037-15.015,6.13-29.59,16.715-39.987     c4.603-4.521,9.658-9.061,15.428-13.434c0.079-0.038,0.16-0.065,0.239-0.106c0.816-0.423,1.514-0.981,2.097-1.625     c5.525-4.006,11.697-7.848,18.733-11.376c0.534-0.145,1.061-0.346,1.57-0.618c0.337-0.18,0.648-0.389,0.945-0.611     c22.352-10.659,53.161-18.172,98.765-18.172c44.998,0,96.556,5.458,137.778,45.943c10.586,10.396,16.678,24.972,16.715,39.987     C497.037,346.855,491.399,360.628,481.127,370.817z"/>
			<path d="M385.648,281.696c4.143,0,7.5-3.358,7.5-7.5v-7.161c0-4.142-3.357-7.5-7.5-7.5c-4.143,0-7.5,3.358-7.5,7.5v7.161     C378.149,278.339,381.506,281.696,385.648,281.696z"/>
			<path d="M342.508,287.196c6.527,0,12.733-2.827,17.027-7.755c2.722-3.123,2.395-7.86-0.728-10.581     c-3.123-2.721-7.86-2.397-10.581,0.727c-1.445,1.658-3.53,2.609-5.72,2.609s-4.275-0.951-5.721-2.609     c-2.721-3.123-7.459-3.448-10.58-0.727c-3.123,2.721-3.449,7.458-0.728,10.581C329.773,284.369,335.98,287.196,342.508,287.196z"/>
			<path d="M299.367,281.696c4.143,0,7.5-3.358,7.5-7.5v-7.161c0-4.142-3.357-7.5-7.5-7.5s-7.5,3.358-7.5,7.5v7.161     C291.868,278.339,295.224,281.696,299.367,281.696z"/>
		</g>
	</g>
</g>
<g>
</g>
<g>
</g>
<g>
</g>
<g>
</g>
<g>
</g>
<g>
</g>
<g>
</g>
<g>
</g>
<g>
</g>
<g>
</g>
<g>
</g>
<g>
</g>
<g>
</g>
<g>
</g>
<g>
</g>
</symbol><symbol id="pancakes" viewBox="0 0 294.881 294.881">
<path d="M0,127.145C0,91.84,50.49,63.076,121.294,57.217c-0.081-0.125-0.161-0.247-0.243-0.37  c-7.372-10.99-10.467-26.751-7.883-40.152c0.837-4.338,5.033-7.176,9.37-6.341c4.338,0.837,7.177,5.032,6.341,9.37  c-1.798,9.324,0.396,20.662,5.461,28.211c10.29,15.349,12.479,42.791-0.828,57.628c-2.949,3.29-8.008,3.564-11.297,0.614  c-3.289-2.95-3.564-8.008-0.614-11.297c4.303-4.798,5.939-13.45,4.965-22.019c-30.778,2.146-58.897,9.016-79.577,19.484  C27.005,102.463,16,114.821,16,127.145c0,13.302,13.17,26.882,36.135,37.258c25.324,11.442,59.171,17.744,95.305,17.744  s69.981-6.301,95.306-17.744c22.965-10.376,36.136-23.956,36.136-37.258c0-19.365-28.278-38.838-70.368-48.456  c-4.308-0.984-7.001-5.274-6.017-9.581c0.983-4.306,5.274-7.002,9.581-6.017c23.7,5.416,43.833,13.752,58.222,24.109  c16.082,11.575,24.582,25.388,24.582,39.944c0,20.158-16.176,38.568-45.548,51.838c-27.351,12.357-63.537,19.163-101.894,19.163  c-38.357,0-74.543-6.806-101.893-19.163C16.175,165.713,0,147.303,0,127.145z M161.383,94.884c-2.95,3.29-2.674,8.348,0.615,11.297  c1.528,1.37,3.437,2.043,5.338,2.043c2.194,0,4.38-0.897,5.96-2.66c13.306-14.841,11.114-42.282,0.826-57.628  c-5.066-7.553-7.26-18.889-5.46-28.209c0.838-4.338-1.999-8.534-6.337-9.373c-4.344-0.836-8.535,2-9.372,6.338  c-2.588,13.397,0.505,29.159,7.88,40.155C168.315,68.007,168.587,86.847,161.383,94.884z M179.503,123.572c-4.418,0-8,3.582-8,8  s3.582,8,8,8h1.329c4.418,0,8-3.582,8-8s-3.582-8-8-8H179.503z M120.26,139.449c-4.418,0-8,3.582-8,8s3.582,8,8,8h1.33  c4.418,0,8-3.582,8-8s-3.582-8-8-8H120.26z M281.229,232.274c-21.805,21.771-75.57,36.399-133.789,36.399  c-58.218,0-111.983-14.627-133.787-36.399c-3.127-3.122-8.192-3.118-11.314,0.009c-3.122,3.126-3.118,8.191,0.009,11.313  c24.99,24.953,81.942,41.077,145.092,41.077c63.15,0,120.103-16.124,145.094-41.077c3.127-3.122,3.131-8.187,0.009-11.313  C289.421,229.156,284.356,229.152,281.229,232.274z M147.44,241.409c63.15,0,120.103-16.124,145.094-41.077  c3.127-3.122,3.131-8.187,0.009-11.313c-3.121-3.127-8.187-3.13-11.313-0.009c-21.805,21.771-75.57,36.399-133.789,36.399  c-58.218,0-111.983-14.627-133.787-36.399c-3.127-3.123-8.192-3.118-11.314,0.008c-3.122,3.127-3.118,8.192,0.009,11.314  C27.338,225.286,84.29,241.409,147.44,241.409z M242.209,134.259c4.418,0,8-3.582,8-8s-3.582-8-8-8h-1.328c-4.418,0-8,3.582-8,8  s3.582,8,8,8H242.209z M68.516,109.09c-4.418,0-8,3.582-8,8s3.582,8,8,8h1.33c4.418,0,8-3.582,8-8s-3.582-8-8-8H68.516z"/>
<g>
</g>
<g>
</g>
<g>
</g>
<g>
</g>
<g>
</g>
<g>
</g>
<g>
</g>
<g>
</g>
<g>
</g>
<g>
</g>
<g>
</g>
<g>
</g>
<g>
</g>
<g>
</g>
<g>
</g>
</symbol><symbol id="right-arrow" viewBox="0 0 129 129">
  <g>
    <path d="m40.4,121.3c-0.8,0.8-1.8,1.2-2.9,1.2s-2.1-0.4-2.9-1.2c-1.6-1.6-1.6-4.2 0-5.8l51-51-51-51c-1.6-1.6-1.6-4.2 0-5.8 1.6-1.6 4.2-1.6 5.8,0l53.9,53.9c1.6,1.6 1.6,4.2 0,5.8l-53.9,53.9z"/>
  </g>
</symbol><symbol id="salad" viewBox="0 0 190.399 190.4">
<g>
	<path d="M189.051,69.999c-4.793-2.396-10.221-3.628-15.423-3.096c1.631-4.199,2.11-9.336-1.101-12.223   c-4.635-4.166-10.576-2.31-15.666,0.172c-1.871-3.545-3.901-7.264-4.593-11.098c-0.429-2.381-3.671-2.375-4.794-0.627   c-1.971,3.068-4.648,5.351-7.328,7.694c-3.236-4.242-8.143-9.281-13.479-6.931c-0.565,0.249-1.064,0.547-1.533,0.867   c-6.385-9.105-15.091-8.678-22.95-0.431c-8.801-12.77-21.632-15.007-30.888-1.415c-11.187-7.921-23.561-6.018-21.038,9.471   c-6.565,0.306-11.821,6.743-15.005,12.018c-3.617-3.888-9.095-8.17-14.089-6.516c-5.445,1.803-6.987,7.147-7.058,12.357   c-3.876-0.402-8.019-0.389-11.484-1.843c-1.276-0.535-2.607,0.784-2.618,1.994c-0.04,4.356,0.099,8.899,2.931,12.419   c1.523,1.893,4.244,2.434,6.848,2.744c-0.696,0.706-1.31,1.497-1.781,2.407c-2.321,4.487-0.62,9.628,1.957,13.585   c1.695,2.602,5.869,0.199,4.18-2.443c-2.848-4.454-3.572-11.329,3.282-12.125c2.558-0.297,4.888,0.628,6.603,2.519   c2.567,2.83,2.05,7.253,1.639,10.724c-5.058,0.227-9.866,1.131-14.166,3.153c-0.197,0.092-0.263,0.248-0.353,0.392   c-0.5-0.793-1.02-1.556-1.507-2.367c-1.123-1.873-3.686-0.567-3.345,1.41c6.655,38.529,53.031,53.852,86.842,53.906   c38.241,0.062,79.034-19.632,92.26-57.357c1.278-3.645-2.716-5.568-5.463-4.24c-0.824-0.592-1.941-0.909-3.339-0.715   c-1.755,0.244-3.502,0.518-5.251,0.784c4.302-8.373,9.43-15.156,17.707-20.409C190.697,73.731,190.994,70.97,189.051,69.999z    M70.196,48.166c1.163,1.068,2.981,0.888,3.819-0.492c7.045-11.597,19.406-8.797,25.69,2.02c1.025,1.763,3.195,1.422,4.285,0   c8.692-5.69,14.707-6.098,18.119-1.372c-2.027,4.28-1.178,10.188-0.048,14.567c0.173,0.667,0.571,1.027,1.031,1.187   c-1.112,0.977-2.196,2.081-3.192,3.447c-1.461-2.501-2.914-5.052-3.656-7.777c-0.451-1.659-2.998-2.652-4.201-1.11   c-3.518,4.511-7.797,7.632-10.762,12.315c-3.744-3.317-9.042-7.324-13.684-5.256c-6.121,2.728-4.437,9.828-2.853,14.987   c0.455,1.483,2.518,0.848,2.277-0.628c-2.21-5.297-0.141-8.519,6.209-9.666c2.645,1.489,5.007,3.33,7.085,5.524   c0.957,0.894,2.764,0.86,3.4-0.438c2.055-4.189,5.863-7.124,9.193-10.382c1.385,2.943,3.213,5.717,4.754,8.546   c0.863,1.586,3.438,1.647,4.285,0c2.457-4.781,5.617-9.139,11.478-9.441c7.798-0.403,7.06,9.789,6.103,14.715   c-16.307-6.443-42.189,3.895-35.488,26.673c-0.725,0.065-1.454,0.097-2.18,0.155c-4.783-9.401-11.177-21.812-19.871-23.812   c1.447-5.217,0.669-11.301-2.156-15.68c-3.719-5.766-10.789-5.166-16.468-3.058c-1.923-5.09-4.726-9.524-10.188-10.614   C53.341,43.062,63.693,42.191,70.196,48.166z M51.77,102.945c-7.052-1.281-14.369-2.526-21.371-2.743   c0.566-3.812,0.048-7.922-1.575-11.258c0.027-0.033,0.035-0.083,0.061-0.117c6.329-2.991,12.784-4.555,19.758-2.849   c4.078,0.998,7.017,3.415,9.627,6.275c-3.273,2.005-5.749,5.142-6.592,9.438C51.587,102.163,51.65,102.571,51.77,102.945z    M29.468,86.653c2.197-8.401,11.699-8.623,19.072-6.866c6.745,1.607,12,5.203,16.403,10.058c-0.857,0.138-1.695,0.339-2.516,0.583   C54.599,80.503,40.51,80.912,29.468,86.653z M56.233,102.948c0.92-3.244,2.71-5.418,5.392-6.71   c0.358,0.443,0.716,0.886,1.077,1.326c1.358,1.653,3.471-0.451,2.735-2.109c-0.047-0.105-0.107-0.194-0.155-0.298   c2.761-0.418,5.453,0.125,8.145,0.675c2.428,3.426,4.633,7.016,6.939,10.534c-3.694-0.101-7.4-0.278-11.132-0.638   c-4.149-0.401-8.674-1.187-13.373-2.041C56.008,103.472,56.148,103.247,56.233,102.948z M77.747,96.505   c0.052,0.004,0.103,0.014,0.155,0.018c2.253,0.144,2.867-2.995,1.103-4.07c-1.594-0.972-3.345-1.677-5.156-2.164   c-0.418-0.573-0.783-1.174-1.237-1.727c1.209-0.98,2.364-1.631,3.496-2.132c-0.101,1.912,2.414,2.083,3.349,0.836   c0.385-0.512,0.692-1.081,1.008-1.643c3.328,0.301,6.362,2.694,9.23,6.848c2.944,4.263,5.103,8.995,7.458,13.607   c-4.814,0.289-9.655,0.395-14.52,0.324C80.994,103.085,79.47,99.736,77.747,96.505z M17.039,82.199   c-0.856,0.082-1.694,0.274-2.51,0.526c-0.011-0.003-0.017-0.011-0.028-0.014c-2.173-0.631-4.394-1.084-6.551-1.768   c-3.276-1.039-3.663-4.737-3.748-7.983c3.762,0.515,7.552-0.044,11.338,1.249c1.274,0.435,2.255-0.685,2.39-1.82   c0.466-3.94,0.897-11.223,6.632-10.125c4.073,0.78,7.263,4.781,9.995,7.574c1.843,1.884,4.298-0.735,2.958-2.73   c6.572-9.886,18.813-16.103,22.096-0.065c0.242,1.184,1.803,2.155,2.969,1.685c5.964-2.405,12.462-3.758,14.78,3.944   c0.931,3.092,0.202,6.221-0.488,9.323c-2.492,0.614-5.146,2.089-7.979,4.689c-10.865-12.37-40.489-20.045-41.954-0.63   C24.686,83.399,21.4,81.781,17.039,82.199z M175.535,102.71c-15.037,30.982-48.81,45.176-82.397,46.057   c-35.48,0.932-62.436-14.938-80.989-43.428c0.068-0.002,0.122,0.046,0.193,0.03c8-1.853,20.189,2.116,27.991,3.342   c10.804,1.696,21.592,3.47,32.456,4.741C107.629,117.529,141.359,107.523,175.535,102.71z M123.119,89.348   c7.214-0.813,12.568,5.316,14.649,11.524c-7.616,1.312-15.228,2.539-22.866,3.51c0.01-0.116,0.022-0.231,0-0.364   C113.768,97.595,115.632,90.191,123.119,89.348z M165.053,95.603c-0.072,0.201-0.057,0.385-0.077,0.576   c-7.757,1.264-15.473,2.651-23.176,4c-0.017-0.136,0.002-0.259-0.046-0.404c-2.735-8.488-10.316-16.332-20.008-14.434   c-9.543,1.869-12.1,10.945-9.008,19.271c0.002,0.007,0.008,0.011,0.01,0.018c-1.854,0.223-3.706,0.458-5.564,0.646   c-2.828-12.055,4.159-20.846,15.996-23.372c12.055-2.573,20.825,4.051,24.48,15c0.746,2.233,4.317,1.952,4.232-0.573   c-0.232-6.921-3.344-11.869-7.877-15.035c0.038-0.098,0.104-0.161,0.131-0.27c4.389-16.75-8.175-25.142-18.627-18.756   c0.002-0.115,0.031-0.219,0.014-0.341c-0.467-3.128-0.797-6.24-0.125-9.245c1.554,0.171,3.242-1.511,2.347-3.396   c-0.131-0.277-0.274-0.511-0.408-0.776c3.46-3.198,9.659,6.194,10.304,7.148c0.926,1.37,2.596,1.564,3.838,0.495   c2.461-2.117,4.898-4.064,7.097-6.291c1.345,3.429,3.284,6.759,4.845,9.895c0.666,1.338,2.423,1.593,3.637,0.954   c2.323-1.223,10.254-5.98,12.057-1.147c0.908,2.435-0.266,5.729-0.905,8.625c-1.831,0.713-3.604,1.654-5.241,2.978   c-7.619,6.161-11.205,15.964-8.248,25.438c0.336,1.078,2.1,0.93,2.029-0.274c-0.895-15.119,10.758-27.43,25.091-23.278   C174.217,78.84,168.35,86.392,165.053,95.603z"/>
</g>
<g>
</g>
<g>
</g>
<g>
</g>
<g>
</g>
<g>
</g>
<g>
</g>
<g>
</g>
<g>
</g>
<g>
</g>
<g>
</g>
<g>
</g>
<g>
</g>
<g>
</g>
<g>
</g>
<g>
</g>
</symbol><symbol id="shape" viewBox="0 0 432.544 432.544">
<g>
	<path d="M421.985,229.833L217.847,25.981c-7.235-7.238-16.94-13.374-29.121-18.416C176.541,2.522,165.407,0,155.318,0H36.547   C26.648,0,18.083,3.619,10.85,10.848C3.617,18.081,0.002,26.646,0.002,36.545v118.771c0,10.088,2.519,21.219,7.564,33.404   s11.182,21.792,18.417,28.837L230.118,421.98c7.043,7.043,15.602,10.564,25.697,10.564c9.89,0,18.558-3.521,25.98-10.564   l140.186-140.47c7.043-7.046,10.561-15.604,10.561-25.693C432.542,245.919,429.024,237.258,421.985,229.833z M117.202,117.201   c-7.142,7.138-15.752,10.709-25.841,10.709c-10.085,0-18.699-3.571-25.837-10.709c-7.138-7.139-10.706-15.749-10.706-25.837   c0-10.089,3.568-18.702,10.706-25.837c7.139-7.139,15.752-10.71,25.837-10.71c10.089,0,18.702,3.571,25.841,10.71   c7.135,7.135,10.706,15.749,10.706,25.837C127.908,101.452,124.341,110.062,117.202,117.201z"/>
</g>
<g>
</g>
<g>
</g>
<g>
</g>
<g>
</g>
<g>
</g>
<g>
</g>
<g>
</g>
<g>
</g>
<g>
</g>
<g>
</g>
<g>
</g>
<g>
</g>
<g>
</g>
<g>
</g>
<g>
</g>
</symbol><symbol id="star_empty" viewBox="0 0 20 19"><g><g transform="translate(-1466 -5993)"><use xlink:href="#c993a"/></g></g></symbol><symbol id="star_full" viewBox="0 0 20 19"><g><g transform="translate(-1382 -5993)"><use xlink:href="#wqjsa"/></g></g></symbol><symbol id="search" viewBox="0 0 56.966 56.966"><g><path d="M55.146,51.887L41.588,37.786c3.486-4.144,5.396-9.358,5.396-14.786c0-12.682-10.318-23-23-23s-23,10.318-23,23  s10.318,23,23,23c4.761,0,9.298-1.436,13.177-4.162l13.661,14.208c0.571,0.593,1.339,0.92,2.162,0.92  c0.779,0,1.518-0.297,2.079-0.837C56.255,54.982,56.293,53.08,55.146,51.887z M23.984,6c9.374,0,17,7.626,17,17s-7.626,17-17,17  s-17-7.626-17-17S14.61,6,23.984,6z" data-original="#000000" class="active-path" data-old_color="#f4f6f9"/></g> </symbol></svg>