<svg xmlns="http://www.w3.org/2000/svg" xmlns:xlink="http://www.w3.org/1999/xlink" width="20" height="20" viewBox="0 0 20 20"><defs><path id="ipr1a" d="M454 7085.143v15.714c0 1.183-.96 2.143-2.143 2.143h-3.808v-7.91h2.705l.389-3.019h-3.094v-1.928c0-.875.241-1.469 1.496-1.469h1.598v-2.696a21.489 21.489 0 0 0-2.33-.12c-2.304 0-3.884 1.405-3.884 3.99v2.228h-2.715v3.018h2.719V7103h-8.79a2.143 2.143 0 0 1-2.143-2.143v-15.714c0-1.183.96-2.143 2.143-2.143h15.714c1.183 0 2.143.96 2.143 2.143z"/></defs><g><g transform="translate(-434 -7083)"><use fill="#fff" xlink:href="#ipr1a"/></g></g></svg>